<svg width="11" height="11" viewBox="0 0 11 11" fill="none" xmlns="http://www.w3.org/2000/svg">
<path d="M9.58925 4.91561C9.13341 3.53066 7.95714 2.11135 6.71863 1.45386C5.58255 0.847717 4.41173 0.794762 3.40598 1.30173C2.96054 1.52578 2.95662 1.62789 3.37481 2.44081C3.76445 3.20023 4.29703 3.8511 4.99554 4.41303C5.10966 4.5072 5.53708 4.79126 5.9417 5.04739C6.36711 5.31331 6.77374 5.58758 6.89991 5.68937C7.64442 6.29055 8.23685 7.01473 8.67524 7.86236C8.81866 8.14207 8.8623 8.19836 8.96076 8.23202C9.15134 8.29868 9.29717 8.21219 9.42795 7.95763C9.71824 7.39246 9.84243 6.75927 9.80467 6.04885C9.78847 5.76534 9.67998 5.19063 9.58925 4.91561Z" fill="#FC9804"/>
<path d="M8.26475 8.52323C7.82806 7.56367 7.26601 6.83679 6.46586 6.19028C6.35173 6.09611 5.92431 5.81205 5.5197 5.55592C5.09429 5.29 4.68766 5.01573 4.56149 4.91394C3.81698 4.31276 3.2241 3.58661 2.78616 2.74095C2.64603 2.4667 2.59187 2.40037 2.49386 2.36868C2.30461 2.30792 2.16271 2.39352 2.03345 2.64568C1.7375 3.22244 1.61444 3.86985 1.66016 4.61566C1.67772 4.92365 1.82886 5.5962 1.94962 5.90373C2.47621 7.25419 3.5743 8.52786 4.74277 9.14945C5.87884 9.75559 7.04967 9.80855 8.05542 9.30158C8.28163 9.1867 8.334 9.14395 8.38137 9.02381C8.4194 8.92644 8.38826 8.79709 8.26475 8.52323Z" fill="#FC9804"/>
</svg>
