<svg width="476" height="375" viewBox="0 0 476 375" fill="none" xmlns="http://www.w3.org/2000/svg">
<rect x="1.52588e-05" y="-0.000244141" width="375" height="375" rx="32" fill="white"/>
<path d="M155.735 330.707C70.6891 329.68 36.0158 317.12 59.7821 244.724C83.5484 172.328 3.35616 92.8988 112.999 34.9061C190.764 -6.22539 342.694 100.957 341.614 190.331C340.535 279.705 240.78 331.734 155.735 330.707Z" fill="#FC9804"/>
<g clip-path="url(#clip0)">
<path d="M87.2863 193.008C87.2894 192.557 87.1995 192.11 87.0223 191.695C86.845 191.28 86.5842 190.906 86.2561 190.597C85.9279 190.287 85.5395 190.049 85.1152 189.896C84.6908 189.743 84.2395 189.68 83.7896 189.71C83.3396 189.74 82.9006 189.862 82.4999 190.069C82.0993 190.276 81.7457 190.563 81.4611 190.913C81.1765 191.263 80.967 191.668 80.8459 192.103C80.7247 192.538 80.6944 192.993 80.7568 193.439L71.3315 205.789C70.9293 206.594 70.7733 207.499 70.8832 208.393C70.9931 209.286 71.3639 210.126 71.9491 210.81L72.6885 211.673L76.0809 210.994L79.9257 207.599L79.4733 203.752L84.2228 196.285L84.2167 196.279C85.048 196.227 85.8281 195.859 86.3982 195.251C86.9684 194.643 87.2859 193.841 87.2863 193.008Z" fill="#FFB9B9"/>
<path d="M22.1071 253.384L20.5686 247.666L41.8763 239.009L44.1469 247.446L22.1071 253.384Z" fill="#FFB8B8"/>
<path d="M16.9606 256.334L12 237.899L12.233 237.837C14.1349 237.324 16.1624 237.589 17.8693 238.572C19.5763 239.555 20.823 241.177 21.3352 243.08L21.3353 243.08L24.365 254.339L16.9606 256.334Z" fill="#2F2E41"/>
<path d="M51.4576 252.47L46.672 248.988L57.8187 228.861L64.882 234.001L51.4576 252.47Z" fill="#FFB8B8"/>
<path d="M49.3046 258L33.8732 246.772L34.0151 246.576C35.1736 244.982 36.9174 243.914 38.8629 243.607C40.8084 243.299 42.7963 243.778 44.3893 244.937L44.3897 244.937L53.8146 251.795L49.3046 258Z" fill="#2F2E41"/>
<path d="M92.1385 224.345L80.0955 212.639C79.0445 211.618 77.6601 211.01 76.1971 210.928C74.734 210.847 73.2906 211.296 72.1324 212.194L49.3934 237.47L51.4289 240.638L73.1406 225.929L87.8414 245.163L101.864 238.148L92.1385 224.345Z" fill="#2F2E41"/>
<path d="M86.9368 226.834L78.1164 226.155L71.7286 224.606C71.3678 224.042 70.8437 223.603 70.2263 223.346C69.609 223.089 68.928 223.027 68.2744 223.168C67.6208 223.309 67.0259 223.647 66.5693 224.135C66.1127 224.624 65.8162 225.24 65.7195 225.902C65.6228 226.564 65.7305 227.24 66.0282 227.839C66.3259 228.438 66.7994 228.932 67.3852 229.254C67.9711 229.576 68.6414 229.712 69.3064 229.643C69.9714 229.573 70.5994 229.302 71.1062 228.866L71.1053 228.87L74.9501 230.455L91.4601 236.112L93.4956 234.528L86.9368 226.834Z" fill="#FFB9B9"/>
<path d="M108.196 251.273L103.221 254.441H97.3402L69.9744 244.258L29.9433 251.5L28.8125 242.9L65.4513 226.834L97.5666 237.469L108.196 251.273Z" fill="#2F2E41"/>
<path d="M97.5665 196.285C102.438 196.285 106.387 192.334 106.387 187.46C106.387 182.585 102.438 178.634 97.5665 178.634C92.6951 178.634 88.7461 182.585 88.7461 187.46C88.7461 192.334 92.6951 196.285 97.5665 196.285Z" fill="#FFB9B9"/>
<path d="M120.389 222.695C120.389 228.021 119.55 233.314 117.903 238.379L117.243 240.411L114.077 254.894L110.684 255.799L108.196 252.631L103.221 249.01L99.602 243.127L96.4991 237.954L95.5311 236.338L92.1386 219.366L79.2472 212.125L74.9501 211.446L75.8547 208.957L79.6995 203.752L83.5443 203.3L84.6751 202.395L85.5798 202.847L90.5668 204.77L106.735 197.935L109.101 198.322L117.243 205.11C119.324 210.739 120.389 216.693 120.389 222.695Z" fill="#CCCCCC"/>
<path opacity="0.1" d="M117.921 220.724L109.327 226.381L96.4991 237.954L95.5311 236.338L92.817 222.761H93.4956L100.507 209.863L117.921 220.724Z" fill="black"/>
<path d="M100.507 208.505L93.4957 221.403L89.4247 225.929L85.8062 226.834L95.5312 237.47L109.327 225.024L117.921 219.366L100.507 208.505Z" fill="#CCCCCC"/>
<path d="M90.706 180.898L89.7504 181.265C89.6053 181.167 89.481 181.041 89.3845 180.895C89.2881 180.749 89.2214 180.585 89.1883 180.413C89.1552 180.24 89.1562 180.063 89.1915 179.892C89.2267 179.72 89.2954 179.557 89.3936 179.412C89.3988 179.404 89.404 179.397 89.4093 179.389L87.6432 179.306C88.7769 177.796 90.2183 176.543 91.8721 175.631C93.5258 174.72 95.3542 174.17 97.2362 174.018C99.1182 173.866 101.011 174.116 102.789 174.751C104.568 175.386 106.191 176.391 107.552 177.701C107.632 177.424 108.509 177.963 108.867 178.509C108.987 178.059 109.809 180.238 110.099 181.779C110.234 181.266 110.751 182.094 110.298 182.889C110.585 182.847 110.715 183.582 110.493 183.991C110.807 183.844 110.754 184.721 110.413 185.308C110.862 185.268 110.375 194.509 103.646 193.835C103.178 191.682 103.31 191.815 102.758 189.046C102.501 188.774 102.22 188.525 101.939 188.277L100.421 186.936C98.6557 185.377 97.0498 183.453 94.6979 182.87C93.0817 182.47 92.0597 182.379 92.9405 180.557C92.1447 180.889 91.4016 181.383 90.5986 181.692C90.6094 181.437 90.7216 181.152 90.706 180.898Z" fill="#2F2E41"/>
<path d="M101.977 190.062C102.851 190.062 103.56 189.353 103.56 188.478C103.56 187.603 102.851 186.894 101.977 186.894C101.102 186.894 100.394 187.603 100.394 188.478C100.394 189.353 101.102 190.062 101.977 190.062Z" fill="#FFB9B9"/>
<path d="M28.1485 151.067L27.6654 158.325L34.9199 158.808L35.403 151.55L28.1485 151.067Z" fill="#E6E6E6"/>
<path d="M23.4679 154.921L32.277 155.508L31.6904 164.322L22.8813 163.735L23.4679 154.921ZM31.8685 155.865L23.8254 155.33L23.2898 163.377L31.3329 163.913L31.8685 155.865Z" fill="#CCCCCC"/>
<path d="M69.1451 129.543L62.0367 131.071L63.5641 138.183L70.6724 136.655L69.1451 129.543Z" fill="#E6E6E6"/>
<path d="M64.1558 126.098L66.0105 134.734L57.3789 136.59L55.5243 127.954L64.1558 126.098ZM65.5546 134.439L63.8612 126.554L55.9802 128.248L57.6736 136.134L65.5546 134.439Z" fill="#CCCCCC"/>
<path d="M61.6759 163.698L56.3695 168.672L61.3398 173.981L66.6462 169.008L61.6759 163.698Z" fill="#E6E6E6"/>
<path d="M67.0277 162.955L60.5843 168.993L54.5489 162.546L60.9924 156.508L67.0277 162.955ZM60.602 168.45L66.4852 162.937L60.9746 157.05L55.0915 162.564L60.602 168.45Z" fill="#CCCCCC"/>
<path d="M336.089 111H120.973C120.195 111 119.425 111.153 118.707 111.451C117.988 111.749 117.336 112.185 116.786 112.735C116.236 113.285 115.8 113.938 115.502 114.657C115.205 115.376 115.052 116.146 115.052 116.924V236.849C115.052 237.627 115.205 238.398 115.502 239.116C115.8 239.835 116.236 240.488 116.786 241.038C117.336 241.589 117.988 242.025 118.707 242.323C119.425 242.62 120.195 242.774 120.973 242.774H336.089C337.66 242.774 339.166 242.149 340.276 241.038C341.387 239.927 342.01 238.421 342.01 236.849V116.924C342.01 115.353 341.387 113.846 340.276 112.735C339.166 111.624 337.66 111 336.089 111Z" fill="#3F3D56"/>
<path d="M334.072 121.47H122.99V240.607H334.072V121.47Z" fill="white"/>
<path d="M228.351 118.22C229.546 118.22 230.516 117.251 230.516 116.054C230.516 114.858 229.546 113.888 228.351 113.888C227.155 113.888 226.186 114.858 226.186 116.054C226.186 117.251 227.155 118.22 228.351 118.22Z" fill="white"/>
<path d="M273.706 240.608H122.99V121.47L273.706 240.608Z" fill="#F2F2F2"/>
<path d="M156.018 231.692C167.224 231.692 176.308 222.603 176.308 211.391C176.308 200.179 167.224 191.09 156.018 191.09C144.812 191.09 135.728 200.179 135.728 211.391C135.728 222.603 144.812 231.692 156.018 231.692Z" fill="#FC9804"/>
<path d="M160.535 226.649C155.543 226.649 150.663 225.168 146.513 222.394C142.362 219.619 139.127 215.675 137.217 211.061C135.307 206.446 134.807 201.369 135.781 196.47C136.755 191.572 139.158 187.072 142.688 183.541C146.218 180.009 150.715 177.604 155.611 176.63C160.507 175.655 165.581 176.155 170.193 178.067C174.805 179.978 178.746 183.215 181.52 187.367C184.293 191.52 185.773 196.402 185.773 201.397C185.773 204.713 185.12 207.997 183.852 211.061C182.584 214.124 180.725 216.908 178.381 219.253C176.037 221.598 173.255 223.458 170.193 224.727C167.131 225.996 163.849 226.649 160.535 226.649ZM160.535 176.474C155.608 176.474 150.792 177.936 146.696 180.675C142.6 183.413 139.407 187.305 137.522 191.859C135.637 196.413 135.143 201.424 136.104 206.259C137.066 211.093 139.438 215.534 142.921 219.02C146.405 222.505 150.843 224.879 155.675 225.84C160.507 226.802 165.515 226.309 170.067 224.422C174.618 222.536 178.508 219.342 181.245 215.243C183.982 211.145 185.443 206.326 185.443 201.397C185.443 198.124 184.799 194.883 183.547 191.859C182.295 188.836 180.461 186.088 178.148 183.774C175.835 181.46 173.089 179.624 170.067 178.372C167.045 177.119 163.806 176.474 160.535 176.474L160.535 176.474Z" fill="#3F3D56"/>
<path d="M285.207 183.365H265.49V187.488H285.207V183.365Z" fill="#3F3D56"/>
<path d="M303.862 161.032H246.835V162.799H303.862V161.032Z" fill="#3F3D56"/>
<path d="M303.862 167.973H246.835V169.74H303.862V167.973Z" fill="#3F3D56"/>
<path d="M303.862 174.914H246.835V176.681H303.862V174.914Z" fill="#3F3D56"/>
<path d="M319.138 128.599H310.898V136.844H319.138V128.599Z" fill="#FC9804"/>
<path d="M322.964 140.672H312.958V130.661H322.964V140.672ZM313.393 140.237H322.529V131.096H313.393L313.393 140.237Z" fill="#CCCCCC"/>
<path d="M347.937 238.441H327.337V236.956C327.337 236.918 327.329 236.879 327.314 236.844C327.299 236.808 327.278 236.775 327.251 236.748C327.223 236.721 327.191 236.699 327.155 236.684C327.119 236.669 327.081 236.662 327.042 236.662H319.979C319.941 236.662 319.903 236.669 319.867 236.684C319.831 236.699 319.799 236.721 319.771 236.748C319.744 236.775 319.722 236.808 319.708 236.843C319.693 236.879 319.685 236.918 319.685 236.956V238.441H315.271V236.956C315.271 236.918 315.263 236.879 315.248 236.844C315.234 236.808 315.212 236.775 315.185 236.748C315.157 236.721 315.125 236.699 315.089 236.684C315.053 236.669 315.015 236.662 314.977 236.662H307.914C307.875 236.662 307.837 236.669 307.801 236.684C307.765 236.699 307.733 236.721 307.706 236.748C307.678 236.775 307.656 236.808 307.642 236.844C307.627 236.879 307.619 236.918 307.619 236.956V238.441H303.205V236.956C303.205 236.918 303.197 236.879 303.183 236.844C303.168 236.808 303.146 236.775 303.119 236.748C303.091 236.721 303.059 236.699 303.023 236.684C302.988 236.669 302.949 236.662 302.911 236.662H295.848C295.809 236.662 295.771 236.669 295.735 236.684C295.699 236.699 295.667 236.721 295.64 236.748C295.612 236.775 295.591 236.808 295.576 236.844C295.561 236.879 295.553 236.918 295.553 236.956V238.441H291.139V236.956C291.139 236.918 291.131 236.879 291.117 236.844C291.102 236.808 291.08 236.775 291.053 236.748C291.026 236.721 290.993 236.699 290.957 236.684C290.922 236.669 290.883 236.662 290.845 236.662H283.782C283.743 236.662 283.705 236.669 283.669 236.684C283.634 236.699 283.601 236.721 283.574 236.748C283.546 236.775 283.525 236.808 283.51 236.843C283.495 236.879 283.488 236.918 283.488 236.956V238.441H279.073V236.956C279.073 236.918 279.066 236.879 279.051 236.844C279.036 236.808 279.014 236.775 278.987 236.748C278.96 236.721 278.927 236.699 278.892 236.684C278.856 236.669 278.818 236.662 278.779 236.662H271.716C271.677 236.662 271.639 236.669 271.603 236.684C271.568 236.699 271.535 236.721 271.508 236.748C271.481 236.775 271.459 236.808 271.444 236.844C271.429 236.879 271.422 236.918 271.422 236.956V238.441H267.007V236.956C267.007 236.918 267 236.879 266.985 236.844C266.97 236.808 266.948 236.775 266.921 236.748C266.894 236.721 266.861 236.699 266.826 236.684C266.79 236.669 266.752 236.662 266.713 236.662H259.65C259.611 236.662 259.573 236.669 259.537 236.684C259.502 236.699 259.469 236.721 259.442 236.748C259.415 236.775 259.393 236.808 259.378 236.844C259.363 236.879 259.356 236.918 259.356 236.956V238.441H254.941V236.956C254.941 236.918 254.934 236.879 254.919 236.844C254.904 236.808 254.883 236.775 254.855 236.748C254.828 236.721 254.796 236.699 254.76 236.684C254.724 236.669 254.686 236.662 254.647 236.662H199.321C199.282 236.662 199.244 236.669 199.208 236.684C199.172 236.699 199.14 236.721 199.113 236.748C199.085 236.775 199.064 236.808 199.049 236.844C199.034 236.879 199.026 236.918 199.026 236.956V238.441H194.612V236.956C194.612 236.918 194.604 236.879 194.59 236.844C194.575 236.808 194.553 236.775 194.526 236.748C194.499 236.721 194.466 236.699 194.43 236.684C194.395 236.669 194.356 236.662 194.318 236.662H187.255C187.216 236.662 187.178 236.669 187.142 236.684C187.107 236.699 187.074 236.721 187.047 236.748C187.019 236.775 186.998 236.808 186.983 236.844C186.968 236.879 186.961 236.918 186.961 236.956V238.441H182.546V236.956C182.546 236.918 182.539 236.879 182.524 236.844C182.509 236.808 182.487 236.775 182.46 236.748C182.433 236.721 182.4 236.699 182.365 236.684C182.329 236.669 182.291 236.662 182.252 236.662H175.189C175.15 236.662 175.112 236.669 175.076 236.684C175.041 236.699 175.008 236.721 174.981 236.748C174.954 236.775 174.932 236.808 174.917 236.844C174.902 236.879 174.895 236.918 174.895 236.956V238.441H170.48V236.956C170.48 236.918 170.473 236.879 170.458 236.844C170.443 236.808 170.421 236.775 170.394 236.748C170.367 236.721 170.334 236.699 170.299 236.684C170.263 236.669 170.225 236.662 170.186 236.662H163.123C163.084 236.662 163.046 236.669 163.01 236.684C162.975 236.699 162.942 236.721 162.915 236.748C162.888 236.775 162.866 236.808 162.851 236.844C162.836 236.879 162.829 236.918 162.829 236.956V238.441H158.415V236.956C158.415 236.918 158.407 236.879 158.392 236.844C158.377 236.808 158.356 236.775 158.328 236.748C158.301 236.721 158.269 236.699 158.233 236.684C158.197 236.669 158.159 236.662 158.12 236.662H151.057C151.019 236.662 150.98 236.669 150.945 236.684C150.909 236.699 150.876 236.721 150.849 236.748C150.822 236.775 150.8 236.808 150.785 236.844C150.771 236.879 150.763 236.918 150.763 236.956V238.441H146.349V236.956C146.349 236.918 146.341 236.879 146.326 236.844C146.311 236.808 146.29 236.775 146.262 236.748C146.235 236.721 146.203 236.699 146.167 236.684C146.131 236.669 146.093 236.662 146.054 236.662H138.991C138.913 236.662 138.838 236.693 138.783 236.748C138.728 236.803 138.697 236.878 138.697 236.956V238.441H134.283V236.956C134.283 236.918 134.275 236.879 134.26 236.844C134.246 236.808 134.224 236.775 134.197 236.748C134.169 236.721 134.137 236.699 134.101 236.684C134.065 236.669 134.027 236.662 133.988 236.662H126.926C126.847 236.662 126.773 236.693 126.717 236.748C126.662 236.803 126.631 236.878 126.631 236.956V238.441H113.094C111.221 238.441 109.424 239.186 108.1 240.511C106.775 241.836 106.031 243.634 106.031 245.508V248.704C106.031 250.578 106.775 252.375 108.1 253.701C109.424 255.026 111.221 255.77 113.094 255.77H347.937C349.81 255.77 351.607 255.026 352.931 253.701C354.256 252.375 355 250.578 355 248.704V245.508C355 244.58 354.817 243.661 354.462 242.804C354.107 241.946 353.587 241.167 352.931 240.511C352.275 239.855 351.497 239.334 350.64 238.979C349.783 238.624 348.864 238.441 347.937 238.441Z" fill="#3F3D56"/>
</g>
<defs>
<clipPath id="clip0">
<rect width="343" height="147" fill="white" transform="translate(12 111)"/>
</clipPath>
</defs>
</svg>
