<svg width="800" height="304" viewBox="0 0 800 304" fill="none" xmlns="http://www.w3.org/2000/svg">
<g clip-path="url(#clip0)">
<path d="M327.454 252.735C337.453 263.471 337.969 279.252 337.969 279.252C337.969 279.252 322.275 277.625 312.276 266.888C302.277 256.152 301.76 240.371 301.76 240.371C301.76 240.371 317.455 241.998 327.454 252.735Z" fill="#FC9804"/>
<path d="M358.932 269.493C348.202 279.499 332.432 280.016 332.432 280.016C332.432 280.016 334.058 264.311 344.787 254.306C355.517 244.3 371.287 243.783 371.287 243.783C371.287 243.783 369.661 259.488 358.932 269.493Z" fill="#FC9804"/>
<path d="M356.265 301.359H316.801C316.044 301.359 315.302 301.146 314.66 300.744C314.018 300.342 313.502 299.768 313.171 299.087L304.579 281.413C304.279 280.798 304.141 280.116 304.178 279.432C304.214 278.748 304.423 278.085 304.786 277.504C305.149 276.924 305.654 276.445 306.252 276.113C306.851 275.782 307.524 275.607 308.208 275.607H364.857C365.542 275.607 366.215 275.782 366.813 276.113C367.412 276.445 367.916 276.924 368.279 277.504C368.642 278.085 368.852 278.748 368.888 279.432C368.924 280.116 368.786 280.798 368.487 281.413L359.895 299.087C359.564 299.768 359.048 300.342 358.406 300.744C357.764 301.146 357.022 301.359 356.265 301.359Z" fill="#3F3D56"/>
<path d="M533.496 85.8234C551.644 85.8234 566.356 71.1023 566.356 52.943C566.356 34.7836 551.644 20.0625 533.496 20.0625C515.348 20.0625 500.637 34.7836 500.637 52.943C500.637 71.1023 515.348 85.8234 533.496 85.8234Z" fill="#FFB8B8"/>
<path d="M508.971 69.3832C508.971 69.3832 515.162 116.083 505.638 121.325C496.113 126.566 562.309 127.043 562.309 127.043C562.309 127.043 547.546 86.5382 554.213 74.1484L508.971 69.3832Z" fill="#FFB8B8"/>
<path d="M610.645 127.279L605.14 152.363L593.499 205.434L593.151 208.34L589.134 241.987L586.462 264.339L584.67 279.354C573.775 284.957 565.88 288.824 565.88 288.824C565.88 288.824 565.2 285.417 564.106 281.058C556.46 283.351 542.313 287.156 530.324 287.917C534.689 292.786 536.696 297.36 533.974 300.736C525.761 310.913 491.854 289.593 479.995 281.643C479.719 283.547 479.614 285.471 479.682 287.393L470.607 280.409L471.505 264.339L473.02 237.149L474.923 203.051C474.323 201.591 473.82 200.092 473.417 198.566C470.638 188.675 467.264 168.925 464.677 152.363C462.595 139.034 461.031 127.771 460.7 125.374C460.655 125.062 460.633 124.901 460.633 124.901L510.872 102.687C514.443 110.972 531.115 113.463 531.115 113.463C544.927 112.51 555.754 105.222 555.754 105.222L610.645 127.279Z" fill="#D0CDE1"/>
<path d="M569.691 279.296C569.691 279.296 567.564 280.025 564.105 281.058C556.46 283.351 542.313 287.157 530.324 287.917C520.001 288.578 511.279 286.987 509.684 280.248C509 277.351 509.97 274.968 512.083 273.009C518.393 267.156 534.873 265.059 547.943 264.339C551.634 264.138 555.048 264.044 557.89 264.008C562.716 263.946 565.879 264.044 565.879 264.044L565.955 264.339L569.691 279.296Z" fill="#FFB8B8"/>
<path d="M506.161 21.841L500.017 19.3798C500.017 19.3798 512.863 5.22765 530.736 6.45832L525.709 0.920478C525.709 0.920478 537.997 -4.00195 549.168 8.9195C555.04 15.712 561.835 23.6963 566.07 32.6905H572.65L569.904 38.741L579.515 44.7915L569.65 43.7047C570.238 47.018 570.328 50.4007 569.918 53.7406C569.495 57.0817 567.791 60.1275 565.166 62.2352C565.166 62.2352 557.546 46.4534 557.546 43.9921V50.1453C557.546 50.1453 551.402 44.6075 551.402 40.9157L548.051 45.2228L546.375 38.4544L525.709 45.2228L529.061 39.6851L516.214 41.531L521.241 34.7625C521.241 34.7625 506.719 42.7616 506.161 49.53C505.602 56.2984 501.351 62.7118 501.351 62.7118C501.351 62.7118 489.963 31.0707 506.161 21.841Z" fill="#2F2E41"/>
<path d="M646.362 242.6C643.015 246.23 634.721 251.699 624.667 257.619C620.927 259.819 616.946 262.086 612.884 264.339C603.191 269.718 593.043 275.048 584.669 279.354C573.775 284.957 565.879 288.824 565.879 288.824C565.879 288.824 565.2 285.417 564.105 281.058C562.64 275.223 560.432 267.679 558.131 264.339C558.051 264.223 557.97 264.116 557.89 264.008C557.219 263.128 556.545 262.613 555.879 262.613L589.133 241.987L603.504 233.071L593.151 208.34L580.165 177.318L588.003 152.364L595.881 127.279H610.645C610.645 127.279 615.533 137.957 621.785 152.846C622.719 155.073 623.684 157.394 624.667 159.79C637.527 191.09 653.56 234.797 646.362 242.6Z" fill="#D0CDE1"/>
<path d="M533.975 300.736C525.761 310.913 491.854 289.593 479.995 281.643C477.412 279.913 475.875 278.817 475.875 278.817L486.725 264.339L490.161 259.756C490.161 259.756 493.235 261.388 497.78 264.044C497.945 264.142 498.11 264.241 498.28 264.339C502.199 266.642 507.119 269.651 512.083 273.009C518.934 277.646 525.86 282.936 530.324 287.917C534.69 292.786 536.696 297.36 533.975 300.736Z" fill="#FFB8B8"/>
<path d="M497.779 264.044C496.566 264.039 495.355 264.138 494.159 264.339C483.886 266.105 480.857 275.41 479.994 281.643C479.718 283.547 479.613 285.471 479.681 287.393L470.606 280.409L467.299 277.865C459.341 275.088 452.249 270.156 446.101 264.339C440.767 259.203 435.982 253.525 431.824 247.397C427.682 241.357 423.99 235.021 420.778 228.439C419.881 226.602 419.399 224.591 419.366 222.547C419.333 220.503 419.749 218.477 420.585 216.612L431.824 191.55L448.25 154.921C448.371 154.049 448.503 153.197 448.648 152.364C451.905 133.673 460.632 125.375 460.632 125.375H467.299L471.759 152.364L477.3 185.894L473.417 198.566L464.444 227.831L473.019 237.149L497.779 264.044Z" fill="#D0CDE1"/>
<path d="M505.325 185.921L511.024 192.575C513.142 192.171 515.353 191.696 517.63 191.163L515.993 185.921L519.996 190.594C544.125 184.655 574.032 173.11 574.032 173.11C574.032 173.11 541.744 175.479 517.636 170.209C506.969 167.877 495.995 173.168 491.618 183.177C489.073 188.994 489.473 194.034 498.496 194.034C501.545 193.982 504.586 193.696 507.591 193.178L505.325 185.921Z" fill="#FC9804"/>
<path d="M635.258 295.281V297.995C635.259 298.74 635.121 299.478 634.851 300.173C634.731 300.482 634.586 300.781 634.418 301.067C633.885 301.961 633.129 302.702 632.224 303.216C631.32 303.73 630.297 304 629.256 304H429.715C428.675 304 427.652 303.73 426.747 303.216C425.842 302.702 425.087 301.961 424.554 301.067C424.385 300.781 424.241 300.482 424.121 300.173C423.85 299.478 423.712 298.74 423.714 297.995V295.281C423.714 294.492 423.869 293.711 424.17 292.983C424.472 292.254 424.914 291.592 425.471 291.034C426.028 290.477 426.69 290.034 427.418 289.733C428.146 289.431 428.927 289.276 429.715 289.276H441.217V288.011C441.217 287.978 441.223 287.945 441.236 287.915C441.249 287.884 441.267 287.857 441.29 287.833C441.313 287.81 441.341 287.792 441.371 287.779C441.402 287.767 441.434 287.76 441.467 287.76H447.468C447.501 287.76 447.534 287.767 447.564 287.779C447.595 287.792 447.622 287.81 447.646 287.833C447.669 287.857 447.687 287.884 447.7 287.915C447.712 287.945 447.719 287.978 447.719 288.011V289.276H451.468V288.011C451.468 287.978 451.474 287.945 451.487 287.915C451.499 287.884 451.518 287.857 451.541 287.833C451.564 287.81 451.592 287.792 451.622 287.779C451.653 287.767 451.685 287.76 451.718 287.76H457.719C457.752 287.76 457.785 287.767 457.815 287.779C457.845 287.792 457.873 287.81 457.896 287.833C457.92 287.857 457.938 287.884 457.951 287.915C457.963 287.945 457.97 287.978 457.97 288.011V289.276H461.723V288.011C461.723 287.978 461.729 287.945 461.742 287.915C461.755 287.884 461.773 287.857 461.796 287.833C461.819 287.81 461.847 287.792 461.877 287.779C461.908 287.767 461.94 287.76 461.973 287.76H467.974C468.007 287.76 468.04 287.767 468.07 287.779C468.101 287.792 468.128 287.81 468.152 287.833C468.175 287.857 468.193 287.884 468.206 287.915C468.218 287.945 468.225 287.978 468.225 288.011V289.276H471.974V288.011C471.974 287.978 471.98 287.945 471.993 287.915C472.005 287.884 472.024 287.857 472.047 287.833C472.07 287.81 472.098 287.792 472.128 287.779C472.159 287.767 472.191 287.76 472.224 287.76H478.225C478.258 287.76 478.291 287.767 478.321 287.779C478.351 287.792 478.379 287.81 478.402 287.833C478.426 287.857 478.444 287.884 478.457 287.915C478.469 287.945 478.476 287.978 478.475 288.011V289.276H482.225V288.011C482.224 287.978 482.231 287.945 482.243 287.915C482.256 287.884 482.274 287.857 482.298 287.833C482.321 287.81 482.349 287.792 482.379 287.779C482.409 287.767 482.442 287.76 482.475 287.76H488.476C488.509 287.76 488.541 287.767 488.572 287.779C488.602 287.792 488.63 287.81 488.653 287.833C488.676 287.857 488.695 287.884 488.707 287.915C488.72 287.945 488.726 287.978 488.726 288.011V289.276H492.48V288.011C492.48 287.978 492.486 287.945 492.499 287.915C492.511 287.884 492.53 287.857 492.553 287.833C492.576 287.81 492.604 287.792 492.634 287.779C492.665 287.767 492.697 287.76 492.73 287.76H498.731C498.764 287.76 498.797 287.767 498.827 287.779C498.857 287.792 498.885 287.81 498.908 287.833C498.932 287.857 498.95 287.884 498.963 287.915C498.975 287.945 498.982 287.978 498.982 288.011V289.276H502.731V288.011C502.731 287.978 502.737 287.945 502.75 287.915C502.762 287.884 502.781 287.857 502.804 287.833C502.827 287.81 502.855 287.792 502.885 287.779C502.915 287.767 502.948 287.76 502.981 287.76H549.99C550.022 287.76 550.055 287.767 550.085 287.779C550.116 287.792 550.143 287.81 550.167 287.833C550.19 287.857 550.208 287.884 550.221 287.915C550.233 287.945 550.24 287.978 550.24 288.011V289.276H553.993V288.011C553.993 287.978 554 287.945 554.012 287.915C554.025 287.884 554.043 287.857 554.066 287.833C554.09 287.81 554.117 287.792 554.148 287.779C554.178 287.767 554.211 287.76 554.244 287.76H560.245C560.311 287.761 560.374 287.787 560.421 287.834C560.468 287.881 560.494 287.944 560.495 288.011V289.276H564.244V288.011C564.244 287.978 564.25 287.945 564.263 287.915C564.276 287.884 564.294 287.857 564.317 287.833C564.34 287.81 564.368 287.792 564.398 287.779C564.429 287.767 564.461 287.76 564.494 287.76H570.496C570.528 287.76 570.561 287.767 570.591 287.779C570.622 287.792 570.649 287.81 570.673 287.833C570.696 287.857 570.714 287.884 570.727 287.915C570.739 287.945 570.746 287.978 570.746 288.011V289.276H574.495V288.011C574.495 287.978 574.501 287.945 574.514 287.915C574.526 287.884 574.545 287.857 574.568 287.833C574.591 287.81 574.619 287.792 574.649 287.779C574.68 287.767 574.712 287.76 574.745 287.76H580.746C580.779 287.76 580.812 287.767 580.842 287.779C580.873 287.792 580.9 287.81 580.923 287.833C580.947 287.857 580.965 287.884 580.978 287.915C580.99 287.945 580.997 287.978 580.997 288.011V289.276H584.75V288.011C584.75 287.978 584.756 287.945 584.769 287.915C584.782 287.884 584.8 287.857 584.823 287.833C584.846 287.81 584.874 287.792 584.904 287.779C584.935 287.767 584.967 287.76 585 287.76H591.002C591.067 287.761 591.13 287.788 591.176 287.835C591.222 287.882 591.248 287.945 591.247 288.011V289.276H595.001V288.011C595.001 287.978 595.007 287.945 595.02 287.915C595.032 287.884 595.051 287.857 595.074 287.833C595.097 287.81 595.125 287.792 595.155 287.779C595.186 287.767 595.218 287.76 595.251 287.76H601.252C601.285 287.76 601.318 287.767 601.348 287.779C601.378 287.792 601.406 287.81 601.429 287.833C601.453 287.857 601.471 287.884 601.484 287.915C601.496 287.945 601.503 287.978 601.503 288.011V289.276H605.252V288.011C605.252 287.978 605.258 287.945 605.271 287.915C605.283 287.884 605.302 287.857 605.325 287.833C605.348 287.81 605.376 287.792 605.406 287.779C605.436 287.767 605.469 287.76 605.502 287.76H611.503C611.536 287.76 611.569 287.767 611.599 287.779C611.629 287.792 611.657 287.81 611.68 287.833C611.703 287.857 611.722 287.884 611.734 287.915C611.747 287.945 611.753 287.978 611.753 288.011V289.276H629.256C630.045 289.276 630.825 289.431 631.553 289.733C632.281 290.034 632.943 290.477 633.5 291.034C634.058 291.592 634.5 292.254 634.801 292.983C635.103 293.711 635.258 294.492 635.258 295.281Z" fill="#3F3D56"/>
<path d="M619.19 180.98H544.815V179.446H511.091V180.98H436.409C435.748 180.98 435.094 181.111 434.484 181.364C433.873 181.617 433.319 181.987 432.851 182.455C432.384 182.922 432.014 183.477 431.761 184.088C431.508 184.699 431.378 185.353 431.378 186.014V287.921C431.378 289.257 431.908 290.537 432.851 291.481C433.795 292.425 435.075 292.955 436.409 292.955H619.19C620.525 292.955 621.804 292.425 622.748 291.481C623.691 290.537 624.221 289.257 624.221 287.921V186.014C624.221 185.353 624.091 184.699 623.838 184.088C623.585 183.477 623.215 182.922 622.748 182.455C622.281 181.987 621.726 181.617 621.116 181.364C620.505 181.111 619.851 180.98 619.19 180.98Z" fill="#3F3D56"/>
<path d="M527.947 227.737C534.116 227.737 539.118 222.732 539.118 216.558C539.118 210.385 534.116 205.38 527.947 205.38C521.777 205.38 516.775 210.385 516.775 216.558C516.775 222.732 521.777 227.737 527.947 227.737Z" stroke="#D0CDE1" stroke-width="2" stroke-miterlimit="10"/>
<path d="M524.371 231.761C530.541 231.761 535.543 226.756 535.543 220.583C535.543 214.409 530.541 209.404 524.371 209.404C518.202 209.404 513.2 214.409 513.2 220.583C513.2 226.756 518.202 231.761 524.371 231.761Z" fill="#D0CDE1"/>
<path d="M196.358 131.601C205.34 131.601 212.622 124.315 212.622 115.327C212.622 106.339 205.34 99.0533 196.358 99.0533C187.376 99.0533 180.095 106.339 180.095 115.327C180.095 124.315 187.376 131.601 196.358 131.601Z" fill="#2F2E41"/>
<path d="M200.89 99.5013C203.704 99.5017 206.471 100.233 208.918 101.623C211.366 103.014 213.411 105.016 214.854 107.434C216.296 109.853 217.087 112.604 217.149 115.42C217.211 118.236 216.542 121.019 215.206 123.498C216.616 121.733 217.643 119.693 218.222 117.509C218.801 115.325 218.918 113.044 218.567 110.811C218.216 108.579 217.404 106.444 216.183 104.543C214.962 102.642 213.358 101.017 211.475 99.7701C209.591 98.5235 207.468 97.6832 205.242 97.3028C203.016 96.9224 200.735 97.0103 198.545 97.5607C196.354 98.1112 194.303 99.1122 192.52 100.5C190.738 101.888 189.264 103.632 188.192 105.621C189.713 103.711 191.644 102.169 193.842 101.109C196.041 100.05 198.45 99.5002 200.89 99.5013Z" fill="#2F2E41"/>
<path d="M165.967 115.293C192.352 115.293 213.741 93.8899 213.741 67.4884C213.741 41.0869 192.352 19.6842 165.967 19.6842C139.582 19.6842 118.193 41.0869 118.193 67.4884C118.193 93.8899 139.582 115.293 165.967 115.293Z" fill="#2F2E41"/>
<path d="M128.473 37.8281C136.705 28.5645 148.212 22.8634 160.565 21.9282C172.918 20.993 185.151 24.8968 194.682 32.8158C194.291 32.4442 193.905 32.0696 193.499 31.7085C184.029 23.2849 171.603 18.9704 158.955 19.7143C146.306 20.4581 134.471 26.1993 126.052 35.6748C117.634 45.1504 113.322 57.5841 114.066 70.2407C114.809 82.8974 120.547 94.7401 130.016 103.164C130.422 103.525 130.839 103.865 131.254 104.21C122.278 95.6659 116.971 83.9668 116.452 71.5815C115.933 59.1962 120.243 47.0936 128.473 37.8281Z" fill="#2F2E41"/>
<path d="M165.563 114.887C182.556 114.887 196.332 101.103 196.332 84.0983C196.332 67.094 182.556 53.3092 165.563 53.3092C148.569 53.3092 134.793 67.094 134.793 84.0983C134.793 101.103 148.569 114.887 165.563 114.887Z" fill="#A0616A"/>
<path d="M143.7 93.8213C143.7 93.8213 147.749 131.092 141.271 135.144C134.793 139.195 178.518 144.866 178.518 144.866C178.518 144.866 172.041 104.354 188.235 93.8213L143.7 93.8213Z" fill="#A0616A"/>
<path d="M182.567 128.662C182.567 128.662 194.624 123.028 177.259 125.034C159.895 127.041 144.913 119.344 144.913 119.344C144.913 119.344 139.651 114.077 138.842 119.749C138.032 125.421 141.271 135.954 123.457 137.574C105.643 139.195 89.4483 134.333 82.9705 146.487C76.4927 158.64 79.7316 211.306 79.7316 211.306C79.7316 211.306 91.8775 255.059 101.594 261.541C111.311 268.023 196.332 259.11 196.332 259.11L220.624 215.357V164.312C220.624 164.312 217.385 146.487 194.713 151.348C194.713 151.348 180.138 148.107 180.948 140.815C181.757 133.523 182.567 128.662 182.567 128.662Z" fill="#D0CDE1"/>
<path d="M104.808 292.504C105.308 290.322 105.643 289.088 105.643 289.088L105.384 287.313L102.716 269.186L101.595 261.54C111.309 257.489 113.74 238.853 113.74 238.853L114.107 238.633L115.764 237.641V237.636L121.716 234.064L121.837 233.992L124.241 235.593L129.125 238.853C135.528 243.633 142.858 247.025 150.645 248.81C158.432 250.596 166.506 250.736 174.351 249.222C178.002 248.596 181.572 247.564 184.995 246.145L196.774 242.215L197.14 242.094L197.502 242.148L204.411 243.194L204.536 243.217L205.108 243.302L203.508 254.368L201.189 270.451C207.315 273.698 212.762 279.797 217.526 287.313C218.58 288.976 219.602 290.707 220.591 292.504C221.878 294.829 223.107 297.248 224.278 299.725C224.421 300.02 224.559 300.32 224.698 300.62C225.149 301.59 225.596 302.569 226.029 303.553H102.663C102.824 302.565 102.984 301.621 103.141 300.713C103.149 300.683 103.155 300.651 103.159 300.62C103.217 300.316 103.27 300.02 103.32 299.725C103.865 296.774 104.392 294.311 104.808 292.504Z" fill="#2F2E41"/>
<path d="M99.9746 136.764C99.9746 136.764 108.882 152.969 105.643 173.225C102.404 193.481 115.359 243.716 115.359 243.716L125.076 241.285C125.076 241.285 118.598 199.153 120.218 189.43C121.837 179.707 121.837 141.625 113.74 136.764C105.643 131.903 99.9746 136.764 99.9746 136.764Z" fill="#2F2E41"/>
<path d="M194.144 153.604L197.547 243.311L204.025 247.362C204.025 247.362 213.337 148.918 208.478 148.918H198.593C197.989 148.918 197.391 149.041 196.835 149.279C196.28 149.518 195.779 149.867 195.363 150.305C194.947 150.744 194.624 151.262 194.414 151.829C194.205 152.396 194.113 153 194.144 153.604Z" fill="#2F2E41"/>
<path d="M119.813 241.69C122.049 241.69 123.862 239.876 123.862 237.639C123.862 235.402 122.049 233.588 119.813 233.588C117.577 233.588 115.765 235.402 115.765 237.639C115.765 239.876 117.577 241.69 119.813 241.69Z" fill="#FC9804"/>
<path d="M200.786 245.741C203.022 245.741 204.835 243.928 204.835 241.69C204.835 239.453 203.022 237.639 200.786 237.639C198.55 237.639 196.737 239.453 196.737 241.69C196.737 243.928 198.55 245.741 200.786 245.741Z" fill="#FC9804"/>
<path d="M139.247 45.6116V76.401H146.373L155.441 66.6781L154.227 76.401H185.726L183.782 66.6781L187.669 76.401H192.689V45.6116H139.247Z" fill="#2F2E41"/>
<path d="M134.388 82.0728C135.73 82.0728 136.817 80.0776 136.817 77.6165C136.817 75.1553 135.73 73.1602 134.388 73.1602C133.047 73.1602 131.959 75.1553 131.959 77.6165C131.959 80.0776 133.047 82.0728 134.388 82.0728Z" fill="#A0616A"/>
<path d="M196.738 82.0728C198.079 82.0728 199.167 80.0776 199.167 77.6165C199.167 75.1553 198.079 73.1602 196.738 73.1602C195.396 73.1602 194.309 75.1553 194.309 77.6165C194.309 80.0776 195.396 82.0728 196.738 82.0728Z" fill="#A0616A"/>
<path d="M213.337 241.285C213.337 241.285 176.494 234.398 174.065 246.552C171.636 258.705 214.956 253.439 214.956 253.439L213.337 241.285Z" fill="#A0616A"/>
<path d="M212.527 157.83C212.527 157.83 300.788 228.321 284.593 245.336C268.399 262.351 206.859 257.49 206.859 257.49L210.908 237.234L246.536 233.183L228.722 215.357L212.527 216.978V157.83Z" fill="#D0CDE1"/>
<path d="M82.1606 275.315L93.4968 284.228C93.4968 284.228 101.594 309.345 113.74 302.053C125.886 294.761 102.404 268.833 102.404 268.833L88.6384 263.972L82.1606 275.315Z" fill="#A0616A"/>
<path d="M93.497 144.866L82.1914 148.271C82.1914 148.271 3.61722 206.445 0.378305 222.65C-2.86061 238.854 15.7631 247.767 15.7631 247.767L86.2094 280.987L93.497 261.541L60.2982 244.526C60.2982 244.526 62.7273 239.665 53.0106 238.854C43.2939 238.044 41.6744 227.511 41.6744 227.511C41.6744 227.511 61.1079 197.532 71.6344 204.014C82.1608 210.496 85.3997 215.357 85.3997 215.357L93.497 144.866Z" fill="#D0CDE1"/>
<path d="M254.749 295.281V297.995C254.75 298.74 254.612 299.478 254.342 300.173C254.222 300.482 254.077 300.781 253.909 301.067C253.376 301.961 252.62 302.702 251.716 303.216C250.811 303.73 249.788 304 248.748 304H49.2063C48.1658 304 47.143 303.73 46.2382 303.216C45.3334 302.702 44.5777 301.961 44.0452 301.067C43.8767 300.781 43.7317 300.482 43.6117 300.173C43.3415 299.478 43.2036 298.74 43.2051 297.995V295.281C43.2049 294.492 43.36 293.711 43.6615 292.983C43.963 292.254 44.405 291.592 44.9623 291.034C45.5196 290.477 46.1813 290.034 46.9095 289.733C47.6377 289.431 48.4181 289.276 49.2063 289.276H60.7082V288.011C60.7082 287.978 60.7146 287.945 60.7272 287.915C60.7397 287.884 60.7582 287.857 60.7814 287.833C60.8047 287.81 60.8323 287.792 60.8626 287.779C60.893 287.767 60.9256 287.76 60.9585 287.76H66.9597C66.9926 287.76 67.0251 287.767 67.0555 287.779C67.0859 287.792 67.1135 287.81 67.1367 287.833C67.16 287.857 67.1784 287.884 67.191 287.915C67.2035 287.945 67.21 287.978 67.2099 288.011V289.276H70.959V288.011C70.9589 287.978 70.9654 287.945 70.9779 287.915C70.9905 287.884 71.0089 287.857 71.0322 287.833C71.0554 287.81 71.083 287.792 71.1134 287.779C71.1438 287.767 71.1764 287.76 71.2092 287.76H77.2104C77.2433 287.76 77.2759 287.767 77.3063 287.779C77.3366 287.792 77.3642 287.81 77.3875 287.833C77.4107 287.857 77.4292 287.884 77.4417 287.915C77.4543 287.945 77.4607 287.978 77.4607 288.011V289.276H81.2143V288.011C81.2142 287.978 81.2206 287.945 81.2332 287.915C81.2458 287.884 81.2642 287.857 81.2874 287.833C81.3107 287.81 81.3383 287.792 81.3687 287.779C81.3991 287.767 81.4316 287.76 81.4645 287.76H87.4657C87.4986 287.76 87.5312 287.767 87.5615 287.779C87.5919 287.792 87.6195 287.81 87.6428 287.833C87.666 287.857 87.6844 287.884 87.697 287.915C87.7096 287.945 87.716 287.978 87.7159 288.011V289.276H91.465V288.011C91.465 287.978 91.4714 287.945 91.484 287.915C91.4965 287.884 91.5149 287.857 91.5382 287.833C91.5614 287.81 91.5891 287.792 91.6194 287.779C91.6498 287.767 91.6824 287.76 91.7153 287.76H97.7165C97.7493 287.76 97.7819 287.767 97.8123 287.779C97.8427 287.792 97.8703 287.81 97.8935 287.833C97.9168 287.857 97.9352 287.884 97.9478 287.915C97.9603 287.945 97.9668 287.978 97.9667 288.011V289.276H101.716V288.011C101.716 287.978 101.722 287.945 101.735 287.915C101.747 287.884 101.766 287.857 101.789 287.833C101.812 287.81 101.84 287.792 101.87 287.779C101.901 287.767 101.933 287.76 101.966 287.76H107.967C108 287.76 108.033 287.767 108.063 287.779C108.093 287.792 108.121 287.81 108.144 287.833C108.168 287.857 108.186 287.884 108.199 287.915C108.211 287.945 108.218 287.978 108.217 288.011V289.276H111.971V288.011C111.971 287.978 111.977 287.945 111.99 287.915C112.002 287.884 112.021 287.857 112.044 287.833C112.067 287.81 112.095 287.792 112.125 287.779C112.156 287.767 112.188 287.76 112.221 287.76H118.222C118.255 287.76 118.288 287.767 118.318 287.779C118.349 287.792 118.376 287.81 118.4 287.833C118.423 287.857 118.441 287.884 118.454 287.915C118.466 287.945 118.473 287.978 118.473 288.011V289.276H122.222V288.011C122.222 287.978 122.228 287.945 122.241 287.915C122.253 287.884 122.272 287.857 122.295 287.833C122.318 287.81 122.346 287.792 122.376 287.779C122.407 287.767 122.439 287.76 122.472 287.76H169.481C169.514 287.76 169.546 287.767 169.577 287.779C169.607 287.792 169.635 287.81 169.658 287.833C169.681 287.857 169.699 287.884 169.712 287.915C169.725 287.945 169.731 287.978 169.731 288.011V289.276H173.484V288.011C173.484 287.978 173.491 287.945 173.503 287.915C173.516 287.884 173.534 287.857 173.558 287.833C173.581 287.81 173.609 287.792 173.639 287.779C173.669 287.767 173.702 287.76 173.735 287.76H179.736C179.802 287.761 179.865 287.787 179.912 287.834C179.959 287.881 179.986 287.944 179.986 288.011V289.276H183.735V288.011C183.735 287.978 183.742 287.945 183.754 287.915C183.767 287.884 183.785 287.857 183.808 287.833C183.832 287.81 183.859 287.792 183.89 287.779C183.92 287.767 183.953 287.76 183.986 287.76H189.987C190.02 287.76 190.052 287.767 190.083 287.779C190.113 287.792 190.141 287.81 190.164 287.833C190.187 287.857 190.205 287.884 190.218 287.915C190.231 287.945 190.237 287.978 190.237 288.011V289.276H193.986V288.011C193.986 287.978 193.992 287.945 194.005 287.915C194.017 287.884 194.036 287.857 194.059 287.833C194.082 287.81 194.11 287.792 194.14 287.779C194.171 287.767 194.203 287.76 194.236 287.76H200.237C200.27 287.76 200.303 287.767 200.333 287.779C200.364 287.792 200.391 287.81 200.415 287.833C200.438 287.857 200.456 287.884 200.469 287.915C200.481 287.945 200.488 287.978 200.488 288.011V289.276H204.241V288.011C204.241 287.978 204.248 287.945 204.26 287.915C204.273 287.884 204.291 287.857 204.314 287.833C204.338 287.81 204.365 287.792 204.396 287.779C204.426 287.767 204.459 287.76 204.491 287.76H210.493C210.558 287.761 210.621 287.788 210.667 287.835C210.713 287.882 210.739 287.945 210.738 288.011V289.276H214.492V288.011C214.492 287.978 214.498 287.945 214.511 287.915C214.523 287.884 214.542 287.857 214.565 287.833C214.588 287.81 214.616 287.792 214.646 287.779C214.677 287.767 214.709 287.76 214.742 287.76H220.743C220.776 287.76 220.809 287.767 220.839 287.779C220.87 287.792 220.897 287.81 220.921 287.833C220.944 287.857 220.962 287.884 220.975 287.915C220.987 287.945 220.994 287.978 220.994 288.011V289.276H224.743V288.011C224.743 287.978 224.749 287.945 224.762 287.915C224.774 287.884 224.793 287.857 224.816 287.833C224.839 287.81 224.867 287.792 224.897 287.779C224.928 287.767 224.96 287.76 224.993 287.76H230.994C231.027 287.76 231.06 287.767 231.09 287.779C231.12 287.792 231.148 287.81 231.171 287.833C231.195 287.857 231.213 287.884 231.226 287.915C231.238 287.945 231.245 287.978 231.244 288.011V289.276H248.748C249.536 289.276 250.316 289.431 251.044 289.733C251.773 290.034 252.434 290.477 252.992 291.034C253.549 291.592 253.991 292.254 254.292 292.983C254.594 293.711 254.749 294.492 254.749 295.281Z" fill="#3F3D56"/>
<path d="M238.681 180.978H164.306V179.444H130.581V180.978H55.8996C54.5653 180.978 53.2857 181.509 52.3422 182.453C51.3987 183.397 50.8687 184.677 50.8687 186.012V287.919C50.8687 289.254 51.3987 290.535 52.3422 291.479C53.2857 292.423 54.5653 292.953 55.8996 292.953H238.681C240.015 292.953 241.295 292.423 242.238 291.479C243.182 290.535 243.712 289.254 243.712 287.919V186.012C243.712 184.677 243.182 183.397 242.238 182.453C241.295 181.509 240.015 180.978 238.681 180.978Z" fill="#3F3D56"/>
<path d="M147.437 227.735C153.607 227.735 158.608 222.73 158.608 216.556C158.608 210.383 153.607 205.378 147.437 205.378C141.267 205.378 136.266 210.383 136.266 216.556C136.266 222.73 141.267 227.735 147.437 227.735Z" stroke="#D0CDE1" stroke-width="2" stroke-miterlimit="10"/>
<path d="M143.862 231.759C150.031 231.759 155.033 226.754 155.033 220.581C155.033 214.407 150.031 209.402 143.862 209.402C137.692 209.402 132.69 214.407 132.69 220.581C132.69 226.754 137.692 231.759 143.862 231.759Z" fill="#D0CDE1"/>
<path d="M669 300.663H8.23877V302.055H669V300.663Z" fill="#3F3D56"/>
</g>
<defs>
<clipPath id="clip0">
<rect width="669" height="304" fill="white"/>
</clipPath>
</defs>
</svg>
