<svg width="475" height="375" viewBox="0 0 475 375" fill="none" xmlns="http://www.w3.org/2000/svg">
<path d="M195.857 161.943H96.0362V185.06H195.857V161.943Z" fill="#565661"/>
<path opacity="0.1" d="M195.857 161.943H96.0362V185.06H195.857V161.943Z" fill="black"/>
<path d="M107.979 185.821L108.68 247.536L99.0789 271.777L98.3358 185.821H107.979Z" fill="#BCBEC9"/>
<path d="M97.0892 166.381L194.275 166.966V184.183H97.0892V166.381Z" fill="#565661"/>
<path d="M185.96 185.821L194.275 186.994V270.84L185.96 245.194V185.821Z" fill="#BCBEC9"/>
<path d="M244.272 162.869H197.434V262.411H244.272V162.869Z" fill="#EFEFF0"/>
<path d="M240.525 165.634H201.182V242.151H240.525V165.634Z" fill="#565661"/>
<path opacity="0.1" d="M240.525 165.634H201.182V242.151H240.525V165.634Z" fill="black"/>
<path d="M240.525 167.202H201.182V184.183H240.525V167.202Z" fill="#565661"/>
<path d="M240.525 185.821H201.182V221.89H240.525V185.821Z" fill="#565661"/>
<path d="M240.525 224.116H201.182V260.185H240.525V224.116Z" fill="#565661"/>
<path opacity="0.1" d="M240.525 224.116H201.182V260.185H240.525V224.116Z" fill="black"/>
<path d="M202.823 268.892C204.223 268.892 205.359 267.441 205.359 265.652C205.359 263.862 204.223 262.411 202.823 262.411C201.422 262.411 200.287 263.862 200.287 265.652C200.287 267.441 201.422 268.892 202.823 268.892Z" fill="#565661"/>
<path d="M237.989 269.047C239.389 269.047 240.525 267.596 240.525 265.807C240.525 264.017 239.389 262.566 237.989 262.566C236.588 262.566 235.453 264.017 235.453 265.807C235.453 267.596 236.588 269.047 237.989 269.047Z" fill="#565661"/>
<path d="M95.6838 271.777H99.0789L98.1456 163.732H92.9896L95.6838 271.777Z" fill="#EFEFF0"/>
<path d="M194.275 162.869V270.84H197.434V163.732L194.275 162.869Z" fill="#EFEFF0"/>
<path d="M98.3113 183.126V186.994H194.275V184.183L98.3113 183.126Z" fill="#EFEFF0"/>
<path d="M104.816 155.609H226.476L244.156 161.464V164.859L92.4051 163.69V160.234L104.816 155.609Z" fill="white"/>
<path d="M92.4051 160.234L244.156 161.464V164.859L92.4051 163.69V160.234Z" fill="#BCBEC9"/>
<path d="M106.151 200.502L105.446 200.396C105.446 200.365 105.446 200.336 105.446 200.308C105.425 200.143 105.401 199.981 105.376 199.815C105.665 200.044 105.94 200.273 106.193 200.502H106.151Z" fill="url(#paint0_linear)"/>
<path d="M90.8449 254.891C91.3028 254.785 91.7677 254.697 92.2325 254.634C95.4254 254.179 98.6815 254.659 101.608 256.014C101.312 258.191 101.02 260.442 101.647 262.545C102.083 264.024 102.96 265.363 103.147 266.906C103.617 266.987 104.056 267.197 104.413 267.513C104.771 267.829 105.034 268.238 105.172 268.695C105.307 269.099 105.375 269.523 105.373 269.949C105.369 270.476 105.303 271.001 105.175 271.513C105.133 271.922 104.932 272.298 104.616 272.561C104.301 272.824 103.895 272.953 103.485 272.922C100.759 273.232 98.0859 272.157 95.5501 271.104L90.6195 269.054C90.0419 268.815 89.4608 268.572 88.9079 268.276C87.8591 267.709 86.928 266.948 86.1643 266.032C86.0029 265.869 85.8896 265.664 85.8368 265.44C85.7452 264.82 86.4707 264.451 86.9321 264.031C87.0672 263.904 87.1856 263.759 87.2843 263.602C87.8302 262.777 87.883 261.64 88.2106 260.668C88.9854 258.36 91.3802 256.874 92.2255 254.623C92.2713 254.5 92.3135 254.377 92.3488 254.25" fill="#A26565"/>
<path opacity="0.1" d="M105.373 269.949C105.369 270.476 105.303 271.001 105.175 271.513C105.133 271.922 104.932 272.298 104.616 272.561C104.301 272.824 103.895 272.953 103.485 272.922C100.759 273.232 98.0859 272.158 95.5501 271.104L90.6195 269.054C90.0419 268.815 89.4608 268.572 88.9079 268.276C87.8591 267.709 86.928 266.948 86.1643 266.032C86.0029 265.869 85.8896 265.664 85.8368 265.44C85.7452 264.82 86.4707 264.451 86.9321 264.031C87.0672 263.904 87.1856 263.759 87.2843 263.602C88.6437 263.894 90.3307 264.75 91.3697 265.081C92.4103 265.365 93.4096 265.783 94.3421 266.324C95.6382 267.156 96.5715 268.438 97.6703 269.495C98.7691 270.551 100.188 271.513 101.72 271.383C102.53 271.26 103.311 270.991 104.024 270.587L105.373 269.949Z" fill="black"/>
<path d="M99.6003 219.893C99.6919 220.212 99.6837 220.552 99.5767 220.867C99.4696 221.182 99.269 221.456 99.0016 221.654C98.5402 221.939 97.945 221.9 97.4872 222.21C96.9202 222.608 96.8392 223.397 96.7406 224.081C96.3884 226.43 95.2226 228.561 94.226 230.72C93.2293 232.88 92.3875 235.236 92.7538 237.582C93.0039 239.174 93.7857 240.872 93.0532 242.305C92.8736 242.658 92.6059 242.971 92.4016 243.313C91.3979 244.99 91.9684 247.114 91.9297 249.065C91.9443 249.282 91.8967 249.498 91.7923 249.688C91.6384 249.868 91.4489 250.015 91.2359 250.118C90.8783 250.381 90.5846 250.721 90.3767 251.113C90.1688 251.505 90.052 251.939 90.0349 252.383C90.0053 253.27 90.1122 254.156 90.3519 255.011C90.3907 255.356 90.5431 255.678 90.7851 255.926C91.0655 256.112 91.3966 256.205 91.7325 256.194C93.9451 256.373 96.1155 256.901 98.1634 257.758C99.4982 258.315 100.794 259.012 102.214 259.28C102.351 259.322 102.495 259.337 102.638 259.321C102.781 259.306 102.919 259.262 103.045 259.192C103.223 259.031 103.346 258.817 103.397 258.582C103.943 256.786 104.496 254.933 104.309 253.066C104.228 252.263 104.013 251.478 103.957 250.675C103.71 247.505 105.855 244.644 106.535 241.516C106.841 240.108 106.841 238.649 107.06 237.226C107.651 233.327 109.8 229.829 110.627 225.972C110.743 225.253 110.922 224.546 111.163 223.859C111.779 222.365 113.205 221.154 113.237 219.537C113.257 219.181 113.163 218.829 112.969 218.53C112.637 218.165 112.196 217.918 111.712 217.825C109.799 217.299 107.851 216.905 105.883 216.649C104.981 216.471 104.061 216.407 103.143 216.458C101.952 216.598 100.806 217.003 99.7905 217.642C98.4311 218.48 99.3045 218.681 99.6003 219.893Z" fill="#454B69"/>
<path opacity="0.05" d="M99.6003 219.893C99.6919 220.212 99.6837 220.552 99.5767 220.867C99.4696 221.182 99.269 221.456 99.0016 221.654C98.5402 221.939 97.945 221.9 97.4872 222.21C96.9202 222.608 96.8392 223.397 96.7406 224.081C96.3884 226.43 95.2226 228.561 94.226 230.72C93.2293 232.88 92.3875 235.236 92.7538 237.582C93.0039 239.174 93.7857 240.872 93.0532 242.305C92.8736 242.658 92.6059 242.971 92.4016 243.313C91.3979 244.99 91.9684 247.114 91.9297 249.065C91.9443 249.282 91.8967 249.498 91.7923 249.688C91.6384 249.868 91.4489 250.015 91.2359 250.118C90.8783 250.381 90.5846 250.721 90.3767 251.113C90.1688 251.505 90.052 251.939 90.0349 252.383C90.0053 253.27 90.1122 254.156 90.3519 255.011C90.3907 255.356 90.5431 255.678 90.7851 255.926C91.0655 256.112 91.3966 256.205 91.7325 256.194C93.9451 256.373 96.1155 256.901 98.1634 257.758C99.4982 258.315 100.794 259.012 102.214 259.28C102.351 259.322 102.495 259.337 102.638 259.321C102.781 259.306 102.919 259.262 103.045 259.192C103.223 259.031 103.346 258.817 103.397 258.582C103.943 256.786 104.496 254.933 104.309 253.066C104.228 252.263 104.013 251.478 103.957 250.675C103.71 247.505 105.855 244.644 106.535 241.516C106.841 240.108 106.841 238.649 107.06 237.226C107.651 233.327 109.8 229.829 110.627 225.972C110.743 225.253 110.922 224.546 111.163 223.859C111.779 222.365 113.205 221.154 113.237 219.537C113.257 219.181 113.163 218.829 112.969 218.53C112.637 218.165 112.196 217.918 111.712 217.825C109.799 217.299 107.851 216.905 105.883 216.649C104.981 216.471 104.061 216.407 103.143 216.458C101.952 216.598 100.806 217.003 99.7905 217.642C98.4311 218.48 99.3045 218.681 99.6003 219.893Z" fill="black"/>
<path d="M92.7078 272.978H89.7037L87.7385 232.598L87.6011 230.301L90.1545 229.403L90.3271 231.844L92.7078 272.978Z" fill="#565661"/>
<path opacity="0.1" d="M90.327 231.844L87.7385 232.598L87.6011 230.301L90.1545 229.403L90.327 231.844Z" fill="black"/>
<path d="M130.402 281.52L125.447 282.119L102.618 230.301L96.4621 229.85L85.65 233.006L83.5474 294.701H78.5921L80.5432 230.752L68.678 231.055L47.5045 283.771H43.0001L65.2689 222.161L66.1282 219.787L99.3148 218.649L107.588 223.288L107.693 223.556L130.402 281.52Z" fill="#565661"/>
<path opacity="0.1" d="M107.693 223.556C100.562 225.705 93.1586 228.05 93.1586 228.05C93.1586 228.05 86.4071 230.407 83.5474 228.05C83.1868 227.769 82.7838 227.547 82.3535 227.392C82.7246 227.657 83.1252 227.878 83.5474 228.05L65.2689 222.158L66.1247 219.787L99.3148 218.649L107.588 223.288L107.693 223.556Z" fill="black"/>
<path d="M73.9364 213.33L87.4499 210.326C87.4499 210.326 119.738 216.335 122.14 218.737C122.14 218.737 96.3109 223.993 93.4582 225.782C90.6055 227.571 73.6336 229.551 73.9364 213.33Z" fill="white"/>
<path d="M68.1251 179.555C67.0685 182.904 64.1841 185.923 60.6728 186.067C60.4173 186.097 60.1587 186.051 59.9297 185.934C59.4895 185.659 59.4789 185.014 59.6585 184.525C59.8382 184.035 60.1516 183.595 60.2009 183.08C60.2114 182.975 60.2043 182.87 60.1798 182.767C60.0882 182.348 59.7466 181.974 59.3451 182.062C59.6185 181.844 59.8006 181.531 59.8559 181.185C59.9113 180.839 59.8359 180.485 59.6444 180.192C59.4851 180.012 59.3413 179.819 59.2148 179.614C58.9225 179.016 59.3768 178.343 59.567 177.702C59.9579 176.293 58.9647 174.884 58.8837 173.415C58.8133 172.101 59.4789 170.865 59.6444 169.562C59.9086 167.448 58.8591 165.423 58.7358 163.313C58.6513 161.841 59.014 160.382 59.419 158.963C59.7712 157.695 60.1692 156.413 60.1939 155.088C60.1939 154.127 60.0283 153.176 59.9825 152.217C59.9095 151.342 60.0686 150.462 60.4439 149.667C60.6877 149.2 61.103 148.845 61.6026 148.677C62.7578 148.29 63.515 148.892 63.684 149.988C63.9658 151.851 63.8038 153.753 64.1736 155.624C64.5155 157.373 65.0335 159.083 65.7197 160.727C66.343 162.214 67.1002 163.651 67.5792 165.19C67.9398 166.459 68.1977 167.755 68.3505 169.065C68.8224 172.584 69.1922 176.205 68.1251 179.555Z" fill="#FC9804"/>
<path d="M148.339 264.81C147.894 265.438 147.321 265.965 146.657 266.356C145.994 266.747 145.255 266.993 144.49 267.078C142.961 267.269 141.373 266.885 139.89 267.304C139.661 267.342 139.444 267.436 139.26 267.578C139.075 267.72 138.929 267.905 138.834 268.117C138.797 268.404 138.775 268.692 138.767 268.98C138.594 269.921 137.358 270.132 136.397 270.125L132.431 270.101C131.607 270.101 130.695 270.055 130.103 269.484C129.822 269.172 129.663 268.769 129.657 268.349C129.65 267.93 129.796 267.522 130.068 267.202C130.191 267.056 130.342 266.936 130.512 266.849C130.264 266.767 130.044 266.618 129.876 266.419C129.708 266.219 129.599 265.977 129.561 265.719C129.489 265.201 129.514 264.674 129.635 264.165C129.635 262.693 129.987 260.227 131.022 259.076C132.294 257.642 134.498 255.789 136.418 255.405C137.066 255.281 137.734 255.31 138.369 255.491C139.004 255.671 139.588 255.998 140.074 256.444C140.982 257.29 141.644 258.614 142.891 258.762C143.571 258.847 144.226 258.526 144.899 258.41C145.663 258.311 146.439 258.452 147.121 258.812C147.802 259.172 148.356 259.734 148.706 260.421C148.876 260.769 148.995 261.141 149.058 261.524C149.244 262.671 148.987 263.845 148.339 264.81Z" fill="#A26565"/>
<path opacity="0.1" d="M148.339 264.81C147.894 265.438 147.321 265.965 146.657 266.356C145.994 266.747 145.255 266.993 144.49 267.078C142.962 267.269 141.373 266.885 139.891 267.304C139.661 267.342 139.444 267.436 139.26 267.578C139.076 267.72 138.929 267.905 138.834 268.117C138.797 268.404 138.775 268.692 138.767 268.98C138.594 269.921 137.358 270.132 136.397 270.125L132.431 270.101C131.607 270.101 130.695 270.055 130.103 269.484C129.822 269.172 129.663 268.769 129.657 268.35C129.65 267.93 129.796 267.522 130.068 267.202C132.357 267.107 134.608 267.202 136.89 266.73C137.816 266.543 138.728 266.296 139.665 266.166C141.694 265.877 143.853 266.124 145.716 265.264C147.269 264.56 148.382 263.126 149.04 261.527C149.231 262.671 148.98 263.844 148.339 264.81Z" fill="black"/>
<path d="M137.876 259.241C136.467 260.333 134.815 261.185 133.04 261.277C131.265 261.369 129.381 260.573 128.511 259.03C127.24 256.765 128.367 253.616 126.81 251.538C126.324 250.886 125.623 250.425 125.109 249.794C124.595 249.164 124.299 248.216 124.757 247.547C124.204 247.758 123.619 247.223 123.457 246.652C123.295 246.081 123.398 245.469 123.299 244.891C123.042 243.359 121.538 242.376 120.816 241.016C120.094 239.657 120.193 237.892 120.112 236.282C119.932 232.36 118.472 228.605 115.956 225.592C115.477 225.021 114.864 224.44 114.117 224.468C114.248 223.179 113.388 221.946 112.275 221.298C111.163 220.65 109.838 220.432 108.549 220.305C95.543 219.023 81.9909 223.859 69.5727 219.791C66.1178 218.66 62.7861 216.768 60.6729 213.803C59.8498 212.674 59.2609 211.392 58.941 210.032C58.621 208.672 58.5764 207.262 58.8099 205.884V205.835C59.2994 203.334 60.6201 202.718 62.8072 201.576C65.332 200.241 67.971 199.134 70.6927 198.269C75.9755 196.617 81.6633 196.022 87.1152 197.233C89.6615 197.804 92.1162 198.748 94.6661 199.301C95.6698 199.519 96.6806 199.674 97.6984 199.805C99.2797 200.002 100.868 200.132 102.46 200.315C107.55 200.902 112.563 202.029 117.414 203.679C119.221 204.292 121.027 204.993 122.58 206.103C123.809 206.995 124.848 208.123 125.636 209.421C126.425 210.718 126.947 212.16 127.173 213.662C127.321 214.697 127.324 215.775 127.55 216.779C127.763 217.623 128.046 218.447 128.395 219.245C131.404 226.686 133.863 234.338 135.752 242.14C135.859 242.719 136.058 243.278 136.34 243.795C136.791 244.525 137.566 245.014 138.02 245.743C139.077 247.462 138.059 249.861 138.996 251.65C139.32 252.27 139.859 252.76 140.183 253.38C141.239 255.412 139.679 257.843 137.876 259.241Z" fill="#454B69"/>
<path opacity="0.1" d="M119.879 218.769C120.38 218.373 120.812 217.897 121.158 217.36C121.505 216.821 121.642 216.173 121.545 215.539C121.682 216.341 121.63 217.164 121.392 217.942C121.154 218.72 120.737 219.431 120.175 220.019C119.291 220.925 117.632 221.812 116.34 221.502C116.523 220.467 119.059 219.466 119.879 218.769Z" fill="black"/>
<path opacity="0.1" d="M97.8744 201.214C97.7681 201.591 97.5695 201.936 97.2965 202.218C97.0235 202.5 96.6847 202.709 96.3107 202.827C95.5597 203.056 94.7735 203.148 93.9898 203.098H93.2854C84.044 202.894 74.704 200.844 65.6775 202.799C64.5896 203.023 63.5223 203.338 62.4866 203.739C61.1672 204.259 59.9318 204.971 58.8204 205.853V205.803C59.3099 203.302 60.6306 202.686 62.8177 201.545C65.3402 200.221 67.9756 199.125 70.6926 198.269C75.9754 196.617 81.6632 196.022 87.1151 197.233C89.6614 197.804 92.1162 198.748 94.666 199.301C95.6697 199.519 96.6805 199.674 97.6983 199.805C97.8958 200.246 97.9571 200.737 97.8744 201.214Z" fill="black"/>
<path d="M97.8744 200.71C97.7689 201.088 97.5706 201.434 97.2975 201.716C97.0245 201.999 96.6853 202.208 96.3107 202.327C95.5599 202.557 94.7733 202.647 93.9898 202.594H93.2854C84.044 202.39 74.704 200.34 65.6774 202.295C64.59 202.52 63.5229 202.833 62.4866 203.232C61.1049 203.783 59.816 204.543 58.6654 205.486C58.3954 204.744 58.1265 204.001 57.8589 203.256C57.5348 202.369 58.5632 202.172 58.7605 201.375C58.8908 200.837 58.6689 200.224 58.5562 199.649C58.5273 199.509 58.5085 199.367 58.4998 199.223C58.4364 197.952 58.8908 197.219 59.9332 196.532C63.0255 194.489 66.7974 193.087 70.3263 192.034C72.2024 191.441 74.1404 191.065 76.1022 190.914C78.8774 190.752 81.6491 191.266 84.3504 191.918C87.6715 192.739 90.9574 193.824 93.9017 195.56C95.3457 196.402 96.7544 197.459 97.5328 198.959C97.8434 199.486 97.964 200.104 97.8744 200.71Z" fill="#A26565"/>
<path opacity="0.1" d="M68.1252 179.554C67.0686 182.904 64.1842 185.923 60.6729 186.067C60.4174 186.097 60.1588 186.051 59.9298 185.933C59.4896 185.659 59.479 185.014 59.6586 184.524C59.8382 184.035 60.1517 183.595 60.201 183.08C60.2115 182.975 60.2043 182.869 60.1798 182.767C62.0429 180.139 63.8496 177.483 64.5646 174.373C64.7093 173.837 64.7535 173.28 64.6949 172.728C64.5998 172.094 64.2793 171.52 64.1032 170.907C63.7933 169.822 63.9377 168.674 64.0257 167.55C64.3925 162.602 63.5663 157.639 61.6168 153.077C61.1413 151.978 60.5989 150.865 60.4334 149.692C60.6773 149.225 61.0925 148.87 61.5921 148.702C62.7473 148.315 63.5045 148.917 63.6735 150.012C63.9553 151.876 63.7933 153.778 64.1631 155.648C64.505 157.397 65.023 159.107 65.7092 160.752C66.3326 162.238 67.0898 163.676 67.5687 165.215C67.9293 166.484 68.1873 167.779 68.34 169.089C68.8225 172.584 69.1923 176.205 68.1252 179.554Z" fill="black"/>
<path opacity="0.1" d="M97.8745 200.71C97.769 201.088 97.5707 201.434 97.2976 201.717C97.0246 201.999 96.6854 202.209 96.3108 202.327C95.56 202.557 94.7734 202.648 93.9899 202.594H93.2855C90.2772 200.596 86.6606 199.723 83.0721 200.129C81.9239 200.266 80.7758 200.534 79.6277 200.428C77.3067 200.217 75.4261 198.547 73.3587 197.48C71.0063 196.318 68.3604 195.886 65.7606 196.239C63.1608 196.591 60.7256 197.713 58.7676 199.459L58.5669 199.636C58.5379 199.495 58.5191 199.353 58.5105 199.209C58.4471 197.938 58.9014 197.205 59.9439 196.518C63.0361 194.475 66.808 193.073 70.337 192.02C72.213 191.427 74.151 191.051 76.1128 190.9C78.8881 190.738 81.6598 191.252 84.3611 191.904C87.6822 192.725 90.9681 193.81 93.9124 195.546C95.3458 196.402 96.7545 197.459 97.5329 198.959C97.8435 199.487 97.9641 200.104 97.8745 200.71Z" fill="black"/>
<path d="M105.774 162.126L105.725 162.253C104.936 164.299 103.485 166.029 102.555 168.022C101.382 170.548 101.093 173.38 100.833 176.155C100.607 178.533 100.386 180.925 100.565 183.309C101.016 189.185 103.886 194.757 104.654 200.52C104.843 201.851 104.892 203.198 104.798 204.539C104.735 205.388 104.58 206.3 104.017 206.927C103.453 207.554 102.358 207.8 101.752 207.198C102.023 206.68 102.298 206.166 102.573 205.648C100.963 204.398 98.5401 205.296 96.6594 204.514C95.8318 204.162 95.1697 203.528 94.4758 202.961C92.8924 201.673 91.0675 200.715 89.1085 200.143C87.1496 199.57 85.096 199.396 83.0685 199.628C81.9204 199.769 80.7722 200.037 79.6241 199.931C77.3032 199.717 75.4225 198.05 73.3552 196.983C71.0028 195.822 68.3573 195.39 65.7577 195.742C63.1582 196.094 60.7229 197.214 58.764 198.959C58.271 199.417 57.6089 199.953 57.0031 199.664C56.769 199.52 56.5798 199.314 56.4572 199.068C54.1504 195.127 55.8479 190.044 58.3132 186.205C60.7786 182.365 64.0433 178.825 65.0576 174.377C65.2041 173.841 65.2483 173.283 65.1879 172.732C65.0928 172.098 64.7724 171.524 64.5963 170.911C64.2863 169.826 64.4307 168.677 64.5188 167.554C64.8883 162.605 64.0646 157.641 62.1169 153.077C61.5534 151.763 60.8842 150.432 60.8842 149.005C60.8842 146.758 62.4937 144.894 63.825 143.087C65.357 141.009 66.6425 138.709 68.583 137.001C70.4214 135.377 73.084 134.384 75.3591 135.208C79.225 134.269 83.2041 133.881 87.1785 134.056C88.5521 134.119 89.9714 134.264 91.1758 134.93C92.4649 135.634 93.3911 136.888 94.659 137.638C95.5852 138.191 96.6524 138.452 97.6596 138.839C100.441 139.926 102.737 141.98 104.126 144.623C105.535 147.353 105.887 150.491 106.197 153.549C106.492 156.427 106.774 159.417 105.774 162.126Z" fill="#FC9804"/>
<path opacity="0.1" d="M100.565 183.309C101.016 189.185 103.886 194.757 104.654 200.52C103.119 199.22 100.981 197.913 100.696 196.402C100.379 194.768 99.3643 192.626 99.1953 190.974C99.0262 189.322 100.185 187.304 98.9699 186.169C98.3782 185.616 99.9525 185.771 99.3749 185.204C98.0753 183.94 97.7548 181.992 97.6738 180.185C97.5365 176.987 97.9415 173.753 97.3534 170.608C97.0012 168.667 96.2651 166.818 95.6769 164.933C94.9937 162.739 94.5006 160.491 94.0076 158.241C93.5223 156.239 93.1693 154.209 92.951 152.161C92.7996 150.4 92.87 148.533 93.6554 146.927C94.4408 145.321 96.0291 144.017 97.8112 144.042C103.77 144.119 102.742 152.2 104.052 155.933C104.577 157.42 105.285 158.857 105.57 160.407C105.674 161.014 105.73 161.629 105.739 162.246C104.95 164.292 103.499 166.022 102.569 168.015C101.396 170.541 101.108 173.373 100.847 176.148C100.608 178.533 100.386 180.925 100.565 183.309Z" fill="black"/>
<path d="M104.439 155.842C104.964 157.328 105.672 158.765 105.957 160.315C106.433 162.911 105.697 165.669 106.496 168.184C106.704 168.721 106.878 169.271 107.017 169.829C107.155 170.629 106.996 171.446 106.996 172.26C106.996 173.57 107.408 174.838 107.775 176.096C109.013 180.369 109.833 184.753 110.222 189.185C110.281 190.376 110.468 191.557 110.782 192.707C110.93 193.097 111.057 193.494 111.163 193.898C111.257 194.436 111.28 194.984 111.23 195.528C111.135 197.254 110.941 198.987 111.135 200.706C111.328 202.425 111.955 204.169 113.248 205.321C112.092 205.571 110.87 205.821 109.743 205.451C108.159 204.933 107.208 203.338 106.401 201.886C105.38 200.034 101.499 198.364 101.097 196.282C100.784 194.651 99.7694 192.51 99.6004 190.854C99.4313 189.199 100.587 187.187 99.3715 186.053C98.7833 185.5 100.358 185.652 99.7765 185.088C98.4804 183.824 98.1599 181.876 98.0789 180.065C97.9416 176.87 98.3431 173.637 97.7584 170.491C97.4063 168.551 96.6702 166.701 96.082 164.813C95.3988 162.622 94.9057 160.375 94.4127 158.121C93.926 156.12 93.573 154.089 93.3561 152.041C93.2047 150.28 93.2716 148.41 94.0605 146.804C94.8494 145.197 96.4377 143.898 98.2163 143.919C104.151 144.024 103.129 152.108 104.439 155.842Z" fill="#FC9804"/>
<path opacity="0.1" d="M87.4568 157.219C88.0133 157.871 88.7282 158.586 89.5699 158.459C89.506 158.56 89.405 158.633 89.2884 158.66C89.1719 158.688 89.0492 158.669 88.9466 158.607C88.7445 158.473 88.5826 158.287 88.4782 158.068L87.2737 156.036C87.1152 155.771 86.0234 154.232 85.7558 155.12C85.6501 155.497 87.1856 156.902 87.4568 157.219Z" fill="black"/>
<path opacity="0.1" d="M86.8088 162.288C86.7742 161.624 86.4943 160.996 86.0234 160.527C85.6001 160.143 85.106 159.845 84.5688 159.65C83.2481 159.107 81.6844 158.67 80.251 158.741C80.7723 159.502 82.4452 159.956 83.2834 160.386C84.4714 160.999 85.6465 161.633 86.8088 162.288Z" fill="black"/>
<path opacity="0.1" d="M90.5596 176.715C90.3166 178.519 88.8409 179.886 87.3477 180.942C85.8544 181.999 84.178 182.908 83.2024 184.436C82.5262 185.493 82.2233 186.719 81.6493 187.821C81.0153 189.037 80.068 190.058 79.3108 191.199C78.5536 192.341 77.9619 193.704 78.1943 195.056C78.1977 195.119 78.2138 195.18 78.2416 195.235C78.2695 195.291 78.3086 195.34 78.3563 195.38C78.4289 195.411 78.5081 195.423 78.5864 195.414C78.6647 195.405 78.7395 195.377 78.8036 195.331C80.3391 194.528 80.9449 192.693 81.5894 191.104C82.266 189.501 83.0278 187.935 83.8716 186.413C84.2519 185.708 84.6711 184.94 85.3789 184.549C85.8636 184.347 86.3599 184.174 86.8652 184.031C87.5819 183.703 88.2106 183.209 88.7001 182.591C90.6227 180.297 91.6265 177.371 91.5176 174.38C91.4964 173.75 91.4612 170.713 90.5138 171.65C89.5664 172.587 90.7216 175.49 90.5596 176.715Z" fill="black"/>
<path d="M92.8805 107.547C95.9093 108.868 98.5155 111.774 98.4204 115.067C98.3394 118.526 95.4444 121.784 96.4411 125.099C97.0187 127.022 98.7585 128.311 100.136 129.773C105.38 135.324 105.369 145.014 100.107 150.555C98.0929 152.668 95.5043 154.172 93.3736 156.191C85.8614 163.271 85.5409 175.518 89.5629 185.025C86.4813 185.691 83.3403 186.045 80.1877 186.082C78.712 186.082 76.9053 185.831 76.37 184.454C75.8769 183.183 76.7222 181.464 75.7501 180.523C75.2923 180.083 74.6055 180.023 73.9892 179.921C70.0236 179.28 66.7694 176.113 65.2831 172.383C63.7969 168.653 63.8744 164.454 64.7267 160.53C65.3324 157.695 66.2798 154.574 64.8746 152.038C63.1136 148.847 58.0492 147.501 58.1267 143.852C58.1901 140.861 61.7155 139.407 63.7159 137.184C67.4068 133.091 65.6494 126.74 65.6424 121.224C65.6424 116.37 67.3399 111.362 70.9533 108.128C76.3277 103.278 86.6785 104.852 92.8805 107.547Z" fill="#A26565"/>
<g opacity="0.1">
<path opacity="0.1" d="M65.4522 148.42C63.9061 145.631 59.8454 144.25 58.9016 141.506C58.4294 142.146 58.164 142.916 58.1408 143.711C58.0634 147.36 63.1208 148.706 64.8887 151.9C65.4693 153.031 65.7137 154.305 65.5931 155.571C66.1496 153.119 66.6391 150.562 65.4522 148.42Z" fill="black"/>
<path opacity="0.1" d="M96.8462 120.583C97.4802 118.734 98.3994 116.867 98.4451 114.947C98.4516 114.739 98.4457 114.531 98.4275 114.324C97.7196 116.444 96.6349 118.501 96.8462 120.583Z" fill="black"/>
<path opacity="0.1" d="M66.058 130.435C67.2695 126.606 66.2235 121.858 66.22 117.61C66.22 117.096 66.2412 116.578 66.2799 116.064C65.8626 117.706 65.652 119.393 65.653 121.087C65.6601 124.119 66.1919 127.409 66.058 130.435Z" fill="black"/>
<path opacity="0.1" d="M100.696 146.951C98.6812 149.065 96.0927 150.569 93.9619 152.587C90.1583 156.169 88.2037 161.076 87.7141 166.279C88.6228 162.404 90.4577 158.836 93.3984 156.064C95.5115 154.056 98.1177 152.559 100.132 150.428C102.528 147.816 103.92 144.439 104.059 140.896C103.451 143.16 102.296 145.239 100.696 146.951Z" fill="black"/>
<path opacity="0.1" d="M80.7759 182.467C79.3002 182.467 77.4935 182.214 76.9582 180.837C76.4651 179.569 77.3104 177.85 76.3383 176.906C75.8805 176.465 75.1902 176.405 74.5774 176.303C70.6153 175.666 67.3611 172.496 65.8748 168.769C64.7795 166.014 64.5436 163.01 64.8183 160.044C64.7901 160.16 64.7655 160.277 64.7408 160.396C63.9026 164.32 63.8145 168.522 65.2972 172.253C66.78 175.983 70.0377 179.149 73.9998 179.787C74.6267 179.889 75.317 179.953 75.7607 180.389C76.7433 181.333 75.8875 183.052 76.3806 184.32C76.9159 185.697 78.7226 185.969 80.1983 185.951C83.3509 185.915 86.4919 185.561 89.5735 184.894C89.1389 183.867 88.7592 182.817 88.436 181.749C85.9067 182.199 83.3447 182.439 80.7759 182.467Z" fill="black"/>
</g>
<path opacity="0.1" d="M92.31 167.106C93.1799 167.762 94.1238 165.264 93.5849 164.641C93.4405 164.803 92.1762 167.015 92.31 167.106Z" fill="black"/>
<path opacity="0.1" d="M96.0186 212.313C97.0435 211.96 98.1318 211.608 98.8009 210.763C99.3538 210.083 99.8082 207.385 98.6389 208.677C97.6457 209.787 97.1773 211.249 96.0186 212.313Z" fill="black"/>
<path opacity="0.1" d="M106.454 209.484C106.33 210.315 106.101 211.178 105.513 211.777C105.404 211.89 105.161 211.96 105.129 211.809C105.786 211.459 106.397 211.028 106.947 210.527C108.137 209.347 108.299 206.441 106.485 205.669C106.468 206.944 106.647 208.188 106.454 209.484Z" fill="black"/>
<path d="M118.981 204.246C118.981 204.246 108.986 200.319 105.373 200.724C101.759 201.129 109.465 206.825 109.465 206.825L114.072 209.931C114.072 209.931 116.889 208.875 117.076 208.794C117.262 208.713 118.981 204.246 118.981 204.246Z" fill="#454B69"/>
<path d="M50.2095 162.112C50.2095 162.112 57.7182 157.758 67.6287 163.168C77.5393 168.579 79.191 200.417 79.191 200.417C79.191 200.417 75.1374 232.855 90.7674 225.638C90.7674 225.638 119.295 216.779 122.151 218.73C122.151 218.73 124.856 218.73 119.45 219.931C114.044 221.132 93.1588 227.751 93.1588 227.751C93.1588 227.751 86.4074 230.111 83.5476 227.751C80.6878 225.391 72.584 228.054 71.531 211.83C70.8341 201.606 69.5808 191.428 67.7766 181.34L64.9908 173.08L50.2095 162.112Z" fill="#565661"/>
<path d="M49.3077 212.277C49.3077 212.277 52.6112 179.385 47.1946 167.519C42.4823 157.177 60.7045 162.013 65.459 163.422C66.1949 163.642 66.8366 164.101 67.2834 164.725C70.1009 168.688 80.2086 184.57 77.2291 205.821C77.2291 205.821 76.0282 224.746 83.5368 227.748L60.4016 220.294C58.5245 219.688 56.6191 219.185 54.6962 218.748C52.245 218.191 48.2512 216.61 49.3077 212.277Z" fill="white"/>
<path d="M213.853 273.683H216.857L218.826 233.302L218.96 231.006L216.407 230.108L216.238 232.549L213.853 273.683Z" fill="#565661"/>
<path opacity="0.1" d="M216.238 232.549L218.826 233.302L218.96 231.006L216.407 230.108L216.238 232.549Z" fill="black"/>
<path d="M188.771 258.089C188.697 258.642 188.555 259.184 188.348 259.702C188.134 260.379 187.676 260.952 187.062 261.309C186.65 261.479 186.209 261.566 185.763 261.566C184.104 261.664 182.35 261.64 180.924 260.794C180.316 260.403 179.759 259.938 179.265 259.41C176.06 256.225 173.146 252.759 170.559 249.054C170.126 248.431 169.679 247.695 169.872 246.941C173.224 246.011 176.406 244.555 179.3 242.626C179.7 242.32 180.147 242.081 180.625 241.922C181.442 241.747 182.283 241.716 183.111 241.83C183.91 241.96 183.946 241.985 184.252 242.887C184.759 244.412 184.675 246.057 185.245 247.582C185.607 248.425 186.048 249.232 186.562 249.991C188.035 252.453 189.165 255.359 188.771 258.089Z" fill="#A26565"/>
<path opacity="0.1" d="M188.771 258.089C188.697 258.642 188.555 259.184 188.348 259.702C188.134 260.379 187.676 260.952 187.062 261.309C186.65 261.479 186.209 261.566 185.763 261.566C184.104 261.664 182.35 261.64 180.924 260.794C180.316 260.403 179.759 259.938 179.265 259.41C176.06 256.225 173.146 252.759 170.559 249.054C170.126 248.431 169.679 247.695 169.872 246.941C170.966 246.638 172.042 246.278 173.098 245.863L173.151 245.902C174.232 246.673 175.018 247.779 175.782 248.864L178.247 252.334C178.687 253.015 179.206 253.642 179.793 254.2C180.522 254.785 181.326 255.269 182.185 255.638C183.343 256.198 184.502 256.758 185.707 257.209C186.485 257.522 187.802 257.645 188.771 258.089Z" fill="black"/>
<path d="M191.046 220.474C190.803 221.059 190.508 221.621 190.165 222.154C186.892 227.652 184.367 233.561 182.657 239.727C182.171 239.618 181.896 240.28 181.899 240.784C181.903 241.288 181.899 241.922 181.435 242.105C181.297 242.158 181.142 242.158 181.008 242.217C180.713 242.351 180.628 242.728 180.586 243.052L180.17 246.103C180.026 247.159 179.899 248.304 180.417 249.238C180.774 249.792 181.237 250.271 181.78 250.646L188.654 256.071C188.936 256.293 189.285 256.529 189.623 256.406C190.394 256.124 189.711 254.743 190.327 254.183C190.736 253.799 191.384 254.088 191.951 254.042C192.69 253.986 193.25 253.306 193.437 252.591C193.568 251.863 193.581 251.118 193.476 250.386C193.429 250.052 193.468 249.711 193.588 249.396C193.799 249.062 194.088 248.785 194.43 248.589C195.623 247.718 196.584 246.568 197.229 245.239C197.875 243.91 198.185 242.443 198.132 240.967C198.076 240.518 198.092 240.062 198.181 239.618C198.324 239.211 198.54 238.834 198.818 238.505C201.315 235.127 203.397 231.46 205.464 227.8C206.655 225.687 207.866 223.542 208.282 221.161C208.318 221.072 208.333 220.976 208.325 220.881C208.318 220.786 208.289 220.693 208.239 220.611C208.19 220.529 208.123 220.46 208.042 220.409C207.961 220.357 207.87 220.325 207.775 220.315C206.743 219.993 205.691 219.742 204.626 219.562C201.389 218.906 198.266 217.895 195.117 216.923C191.968 215.951 191.993 217.931 191.046 220.474Z" fill="#454B69"/>
<path d="M176.159 282.224L181.118 282.823L203.943 231.006L210.099 230.555L220.915 233.711L223.014 295.405H227.969L226.018 231.457L237.883 231.76L259.057 284.475H263.561L241.292 222.866L240.436 220.491L207.246 219.354L198.973 223.993L198.868 224.26L176.159 282.224Z" fill="#565661"/>
<path opacity="0.1" d="M198.868 224.26C206 226.409 213.403 228.755 213.403 228.755C213.403 228.755 220.154 231.111 223.014 228.755C223.374 228.474 223.777 228.251 224.208 228.096C223.837 228.361 223.436 228.582 223.014 228.755L241.292 222.862L240.447 220.491L207.257 219.354L198.984 223.993L198.868 224.26Z" fill="black"/>
<path d="M232.625 214.035L219.111 211.03C219.111 211.03 186.823 217.04 184.421 219.442C184.421 219.442 210.25 224.697 213.103 226.487C215.956 228.276 232.928 230.255 232.625 214.035Z" fill="white"/>
<path d="M182.481 262.319C181.667 263.869 179.663 264.306 177.902 264.331C175.457 264.361 173.029 263.927 170.746 263.052C169.443 262.552 168.192 261.907 166.847 261.541C164.843 260.992 162.621 261.037 160.86 259.935C159.926 259.312 159.154 258.475 158.609 257.494C158.507 257.321 158.409 257.142 158.317 256.958C157.475 255.321 157.084 253.415 157.553 251.647C158.021 249.878 159.722 247.931 161.695 247.959C164.037 247.994 166.829 249.104 169.09 249.678C171.908 250.382 174.726 251.196 177.215 252.686C179.3 253.94 181.142 255.74 182.125 257.938C182.314 258.362 182.469 258.8 182.59 259.248C182.896 260.262 182.967 261.393 182.481 262.319Z" fill="#A26565"/>
<path opacity="0.1" d="M182.481 262.32C181.667 263.869 179.663 264.306 177.902 264.331C175.457 264.361 173.029 263.927 170.746 263.052C169.443 262.552 168.192 261.907 166.847 261.541C164.843 260.992 162.621 261.037 160.86 259.935C159.926 259.312 159.154 258.475 158.609 257.494C158.507 257.321 158.409 257.142 158.317 256.958C158.669 256.987 158.993 257.022 159.169 257.04C161.332 257.247 163.396 258.036 165.459 258.632C168.324 259.459 171.283 259.921 174.264 260.005C176.377 260.065 178.582 259.91 180.427 258.878C180.978 258.53 181.55 258.216 182.139 257.938C182.328 258.362 182.483 258.8 182.604 259.248C182.896 260.262 182.967 261.393 182.481 262.32Z" fill="black"/>
<path d="M197.614 195.345C193.036 194.595 188.373 194.412 183.731 194.229L178.053 194.003C177.65 193.957 177.241 194.006 176.86 194.148C176.531 194.359 176.219 194.594 175.926 194.852C175.356 195.24 174.627 195.282 173.94 195.321C169.068 195.589 164.223 196.218 159.444 197.202C156.979 197.705 154.418 198.364 152.566 200.065C150.608 201.865 149.748 204.609 149.681 207.265C149.614 209.921 150.312 212.531 151.048 215.081C151.985 218.151 152.503 221.334 152.587 224.542C152.554 225.432 152.588 226.324 152.689 227.209C152.853 228.054 153.102 228.88 153.432 229.674L156.024 236.596C156.253 237.202 156.478 237.804 156.729 238.396C156.979 238.987 157.218 239.452 157.433 240.009C157.75 240.77 158 241.559 158.25 242.344L159.976 247.765L160.201 248.47C160.824 250.421 161.462 252.408 162.638 254.084C163.815 255.761 165.635 257.114 167.682 257.216C168.342 257.191 169.003 257.209 169.661 257.269C170.222 257.405 170.766 257.603 171.284 257.857C172.821 258.495 174.47 258.817 176.134 258.804C177.666 258.804 179.367 258.378 180.198 257.089C180.656 256.384 180.776 255.518 180.903 254.687C181.125 253.017 181.339 251.274 180.772 249.688C180.42 248.741 179.829 247.927 179.42 246.994C178.849 245.722 178.663 244.317 178.293 242.975C177.493 240.086 175.864 237.495 173.609 235.521C172.808 232.35 172.22 229.128 171.848 225.877C171.796 225.157 171.653 224.447 171.422 223.764C171.01 222.707 170.175 221.851 169.826 220.773C169.499 219.773 169.597 218.618 169.002 217.755C173.958 219.118 178.864 218.811 184.009 218.73C185.657 218.736 187.303 218.641 188.94 218.449C189.702 218.309 190.475 218.226 191.25 218.202C192.842 218.202 194.335 218.906 195.797 219.526C199.928 221.288 204.281 222.672 208.768 222.862C213.399 223.056 217.977 221.967 222.503 220.89C224.493 220.414 226.56 219.9 228.138 218.593C229.716 217.286 230.603 214.93 229.631 213.137C228.892 211.788 227.36 211.126 225.93 210.562C221.971 208.998 217.992 207.473 214.177 205.581C208.352 202.742 203.996 196.402 197.614 195.345Z" fill="#454B69"/>
<path d="M189.45 179.41C188.897 180.608 187.967 181.587 187.281 182.714C186.132 184.569 185.753 186.8 186.224 188.931C186.472 189.984 186.958 190.967 187.645 191.803C188.332 192.639 189.201 193.306 190.186 193.753C191.066 194.104 191.991 194.327 192.933 194.415C194.173 194.567 195.494 194.598 196.589 194C197.409 193.508 198.081 192.805 198.537 191.964C199.484 190.379 200.023 188.593 200.516 186.814C201.428 183.531 202.206 180.164 202.094 176.758C202.055 175.585 201.823 174.264 200.851 173.588C200.349 173.298 199.792 173.115 199.216 173.052L194.571 172.221C193.673 172.059 192.106 171.4 191.327 172.048C190.549 172.696 190.489 174.613 190.355 175.511C190.144 176.839 190.014 178.188 189.45 179.41Z" fill="#A1616A"/>
<path d="M245.916 165.786L244.701 175.972C244.45 177.789 244.305 179.619 244.268 181.453C244.268 182.475 244.3 183.609 243.624 184.373C243.293 184.721 242.874 184.973 242.412 185.102C240.937 185.56 239.327 185.152 237.918 184.521C237.094 184.169 236.252 183.658 235.879 182.837C235.662 182.268 235.572 181.659 235.615 181.052C235.615 174.975 236.189 168.639 239.362 163.461C239.633 162.953 240.015 162.512 240.479 162.172C241.359 161.608 242.511 161.767 243.507 162.073C244.12 162.26 245.776 162.467 246.166 163.013C246.557 163.559 246.001 165.085 245.916 165.786Z" fill="#A1616A"/>
<path d="M213.681 128.949C220.683 128.949 226.36 123.271 226.36 116.268C226.36 109.265 220.683 103.588 213.681 103.588C206.678 103.588 201.002 109.265 201.002 116.268C201.002 123.271 206.678 128.949 213.681 128.949Z" fill="#A1616A"/>
<path d="M210.289 135.166C210.244 136.152 209.975 137.116 209.504 137.984C215.977 136.997 222.434 135.898 228.874 134.687C226.737 133.588 225.122 131.689 224.38 129.403C224.03 128.177 223.838 126.912 223.81 125.638C223.708 123.617 223.746 121.591 223.926 119.576C221.672 119.812 219.538 120.657 217.389 121.383C215.229 122.113 213.032 122.728 210.807 123.225C209.733 123.464 208.652 123.669 207.567 123.859C206.299 124.084 205.69 124.081 206.57 125.194C208.933 128.167 210.62 131.189 210.289 135.166Z" fill="#A1616A"/>
<path d="M214.184 133.471C212.512 133.721 210.758 134.003 209.423 135.039C208.915 135.475 208.432 135.94 207.975 136.43C205.323 139.005 201.58 140.041 198.361 141.858C197.836 142.118 197.37 142.483 196.994 142.932C196.642 143.422 196.462 144.045 196.093 144.532C195.663 145.095 194.983 145.447 194.649 146.071C194.314 146.694 194.388 147.356 194.353 148.019C194.272 149.473 193.722 150.854 193.296 152.246C191.342 158.906 192.412 166.335 189.454 172.626C189.59 172.988 189.798 173.319 190.066 173.599C190.333 173.879 190.655 174.101 191.011 174.253C191.755 174.521 192.532 174.689 193.321 174.75L199.875 175.564C200.812 175.68 201.805 175.789 202.661 175.398C201.878 177.557 201.324 179.791 201.009 182.066C200.85 183.456 200.603 184.835 200.27 186.194C199.368 189.294 197.1 191.876 194.413 193.64C194.074 193.818 193.789 194.081 193.585 194.405C193.233 195.109 193.754 195.898 194.124 196.589C195.198 198.589 195.05 200.992 195.036 203.26C195.022 205.528 195.251 208.019 196.836 209.646C197.773 210.608 199.055 211.129 200.301 211.626L210.553 215.722C212.245 216.443 213.99 217.031 215.773 217.483C218.474 218.1 221.281 218.075 224.053 217.955C225.884 217.878 227.713 217.76 229.54 217.603C230.267 217.601 230.981 217.413 231.614 217.057C232.16 216.627 232.579 216.057 232.829 215.409C234.256 212.305 234.735 208.684 236.946 206.085C238.464 204.299 240.82 202.872 240.993 200.537C241.074 199.375 240.556 198.244 240.549 197.078C240.549 195.645 241.299 194.281 241.254 192.851C241.159 190.523 238.964 188.748 238.616 186.444C237.728 180.604 240.694 174.771 242.514 169.153C242.842 168.149 243.265 167.039 244.23 166.61C245.195 166.18 246.554 166.405 246.899 165.454C247.769 163.066 247.977 160.266 247.864 157.726C247.801 156.258 247.28 154.82 247.339 153.348C247.382 152.312 247.713 151.305 247.801 150.273C247.935 148.713 247.523 147.163 247.096 145.655C246.973 145.117 246.789 144.595 246.547 144.098C246.287 143.648 245.98 143.227 245.631 142.841L243.916 140.801C243.113 139.847 242.264 138.857 241.099 138.374C240.722 137.441 239.517 136.796 238.654 136.282C237.785 135.789 236.886 135.347 235.964 134.961L226.265 130.678C225.902 130.496 225.514 130.37 225.113 130.305C224.522 130.285 223.936 130.406 223.401 130.657C220.443 131.83 217.354 132.999 214.184 133.471Z" fill="#FC9804"/>
<path d="M203.911 118.473C203.538 117.159 202.583 116.025 202.439 114.666C202.309 113.457 202.84 112.288 203.143 111.111C203.446 109.935 203.436 108.498 202.502 107.716C202.347 107.582 202.15 107.462 202.094 107.265C201.981 106.913 202.337 106.592 202.446 106.236C202.647 105.532 201.777 104.754 202.094 104.077C202.273 103.707 202.724 103.577 203.119 103.461C204.626 103.014 206.154 102.02 206.482 100.481C207.662 100.974 208.919 100.048 209.824 99.1495C210.729 98.2513 211.842 97.2263 213.089 97.4975L212.811 98.0646C214.733 97.3666 216.836 97.343 218.773 97.9977H218.182C219.881 98.0264 221.53 98.5842 222.897 99.5933C222.746 99.5933 222.732 99.8187 222.792 99.9455C223.285 101.097 224.553 101.707 225.775 101.992C226.511 102.168 227.31 102.295 227.849 102.823C228.388 103.352 228.399 104.454 227.687 104.708C229.138 105.273 230.512 106.018 231.776 106.927C232.128 107.184 232.526 107.533 232.481 107.984C232.43 108.21 232.357 108.431 232.262 108.642C232.192 109.018 232.217 109.406 232.336 109.769L232.727 111.383C233.157 113.176 233.495 115.335 232.188 116.635C232.677 117.549 232.859 118.596 232.706 119.621C232.553 120.646 232.074 121.595 231.339 122.327C231.443 122.641 231.479 122.974 231.444 123.304C231.41 123.634 231.306 123.952 231.14 124.239C230.974 124.525 230.748 124.773 230.479 124.966C230.21 125.159 229.903 125.293 229.579 125.359C230.012 126.036 229.614 127.001 228.93 127.424C228.247 127.846 227.388 127.85 226.592 127.776C225.796 127.702 224.989 127.522 224.194 127.642C223.035 127.822 221.901 128.611 220.784 128.258C220.368 128.08 219.969 127.866 219.59 127.617C218.809 127.198 217.9 127.103 217.034 126.913C215.557 126.595 214.154 125.997 212.902 125.152C212.073 124.653 211.411 123.917 211.004 123.038C210.229 121.08 211.532 118.512 210.162 116.916C209.359 115.986 207.768 115.972 206.869 116.768C206.422 117.166 206.362 118.005 205.897 118.304C205.249 118.468 204.578 118.525 203.911 118.473Z" fill="#464353"/>
<path opacity="0.1" d="M186.682 219.474C186.181 219.077 185.75 218.601 185.404 218.065C185.057 217.525 184.919 216.877 185.016 216.244C184.879 217.045 184.931 217.868 185.169 218.646C185.407 219.425 185.824 220.136 186.386 220.724C187.27 221.629 188.929 222.517 190.222 222.207C190.038 221.171 187.503 220.171 186.682 219.474Z" fill="black"/>
<path d="M256.352 162.816C256.352 162.816 248.843 158.463 238.933 163.873C229.022 169.283 227.37 201.122 227.37 201.122C227.37 201.122 231.424 233.559 215.794 226.342C215.794 226.342 187.267 217.483 184.41 219.435C184.41 219.435 181.706 219.435 187.112 220.636C192.518 221.837 213.402 228.455 213.402 228.455C213.402 228.455 220.154 230.815 223.014 228.455C225.873 226.095 233.977 228.758 235.03 212.534C235.727 202.311 236.98 192.132 238.785 182.045L241.57 173.785L256.352 162.816Z" fill="#565661"/>
<path d="M257.253 212.982C257.253 212.982 253.95 180.09 259.366 168.223C264.079 157.881 245.857 162.718 241.102 164.127C240.366 164.347 239.724 164.805 239.278 165.43C236.46 169.392 226.352 185.275 229.332 206.525C229.332 206.525 230.533 225.451 223.024 228.452L246.159 220.999C248.037 220.393 249.942 219.889 251.865 219.452C254.316 218.896 258.31 217.314 257.253 212.982Z" fill="white"/>
<path opacity="0.1" d="M317.904 276.941C336.856 276.941 352.221 274.473 352.221 271.428C352.221 268.384 336.856 265.916 317.904 265.916C298.951 265.916 283.586 268.384 283.586 271.428C283.586 274.473 298.951 276.941 317.904 276.941Z" fill="#FC9804"/>
<path d="M319.006 165.824H316.798V215.55H319.006V165.824Z" fill="#535461"/>
<path d="M332.886 215.398L332.748 217.638L332.551 220.808L332.47 222.126L332.276 225.296L332.192 226.613L331.995 229.783L329.769 265.736C329.667 267.279 328.982 268.726 327.853 269.783C326.725 270.84 325.236 271.428 323.69 271.428H312.114C310.565 271.428 309.074 270.836 307.946 269.775C306.818 268.713 306.137 267.261 306.042 265.715L303.809 229.759L303.615 226.589L303.534 225.271L303.334 222.101L303.253 220.784L303.059 217.614L302.918 215.373C302.894 214.944 302.957 214.514 303.104 214.11C303.251 213.706 303.479 213.336 303.773 213.022C304.068 212.709 304.423 212.459 304.817 212.287C305.211 212.116 305.637 212.026 306.067 212.024H329.741C330.173 212.026 330.599 212.117 330.995 212.29C331.391 212.464 331.747 212.716 332.041 213.032C332.336 213.348 332.563 213.721 332.708 214.128C332.853 214.535 332.913 214.967 332.886 215.398Z" fill="#565661"/>
<path d="M332.748 217.638L332.551 220.798H303.256L303.059 217.638H332.748Z" fill="#9D9CB5"/>
<path d="M332.47 222.119L332.276 225.282H303.534L303.337 222.119H332.47Z" fill="#9D9CB5"/>
<path d="M332.192 226.599L331.995 229.759H303.813L303.616 226.599H332.192Z" fill="#9D9CB5"/>
<path d="M299.685 184.461C312.547 193.767 317.904 208.322 317.904 208.322C317.904 208.322 302.407 207.79 289.542 198.484C276.676 189.178 271.327 174.627 271.327 174.627C271.327 174.627 286.826 175.159 299.685 184.461Z" fill="#FC9804"/>
<path d="M271.327 174.627C271.327 174.627 287.411 183.556 292.574 190.949C297.737 198.343 317.904 208.322 317.904 208.322" stroke="#535461" stroke-width="2" stroke-miterlimit="10"/>
<path d="M307.986 165.715C314.988 170.777 317.904 178.702 317.904 178.702C317.904 178.702 309.451 178.41 302.467 173.348C295.483 168.286 292.571 160.361 292.571 160.361C292.571 160.361 300.988 160.65 307.986 165.715Z" fill="#FC9804"/>
<path d="M292.571 160.361C292.571 160.361 301.326 165.222 304.133 169.245C306.94 173.267 317.921 178.702 317.921 178.702" stroke="#535461" stroke-width="2" stroke-miterlimit="10"/>
<path d="M328.075 178.297C320.034 187.135 318.333 198.684 318.333 198.684C318.333 198.684 329.67 195.902 337.704 187.061C345.737 178.22 347.445 166.673 347.445 166.673C347.445 166.673 336.115 169.459 328.075 178.297Z" fill="#FC9804"/>
<path d="M347.452 166.677C347.452 166.677 336.978 175.736 334.316 181.978C331.653 188.22 318.333 198.685 318.333 198.685" stroke="#535461" stroke-width="2" stroke-miterlimit="10"/>
<path d="M165.41 157.022V157.825H141.598V157.173C142.251 156.928 142.869 156.599 143.437 156.194C144.448 155.47 145.272 154.515 145.84 153.409C146.409 152.302 146.705 151.077 146.705 149.833C146.706 149.183 146.624 148.535 146.462 147.906C146.174 146.773 145.636 145.719 144.888 144.821C144.14 143.924 143.2 143.205 142.137 142.718H165.248C164.185 143.205 163.246 143.924 162.497 144.821C161.749 145.719 161.211 146.773 160.923 147.906C160.762 148.536 160.682 149.183 160.683 149.833C160.683 151.076 160.978 152.302 161.546 153.408C162.114 154.515 162.938 155.47 163.948 156.194C164.405 156.52 164.895 156.798 165.41 157.022Z" fill="#DFE6F5"/>
<path opacity="0.1" d="M165.248 142.718C164.186 143.205 163.246 143.924 162.497 144.821C161.749 145.719 161.211 146.773 160.923 147.906H146.462C146.174 146.773 145.637 145.719 144.888 144.821C144.14 143.924 143.2 143.205 142.138 142.718H165.248Z" fill="black"/>
<path d="M114.336 138.614V143.137C114.336 145.631 116.16 147.656 118.414 147.656H188.468C190.722 147.656 192.55 145.631 192.55 143.137V138.614H114.336Z" fill="#DFE6F5"/>
<path opacity="0.1" d="M165.41 157.022V157.825H141.598V157.173C142.251 156.928 142.869 156.599 143.437 156.194H163.948C164.405 156.52 164.895 156.798 165.41 157.022Z" fill="black"/>
<path d="M172.084 156.444H134.925C134.265 156.444 133.731 156.978 133.731 157.637C133.731 158.295 134.265 158.829 134.925 158.829H172.084C172.743 158.829 173.278 158.295 173.278 157.637C173.278 156.978 172.743 156.444 172.084 156.444Z" fill="#DFE6F5"/>
<path d="M192.55 89.0789C192.55 88.543 192.444 88.0123 192.239 87.5172C192.034 87.0221 191.733 86.5722 191.354 86.1934C190.975 85.8146 190.525 85.5143 190.029 85.3095C189.534 85.1047 189.004 84.9995 188.468 85H118.414C117.878 84.9995 117.348 85.1047 116.853 85.3095C116.358 85.5144 115.908 85.8148 115.529 86.1937C115.15 86.5725 114.85 87.0223 114.645 87.5174C114.44 88.0125 114.335 88.5431 114.336 89.0789V139.495H192.55V89.0789Z" fill="#474157"/>
<path d="M190.415 90.9001V134.225C190.416 134.489 190.364 134.751 190.264 134.995C190.163 135.239 190.015 135.46 189.829 135.647C189.642 135.834 189.421 135.982 189.177 136.083C188.933 136.184 188.672 136.236 188.408 136.236H118.478C118.214 136.236 117.952 136.184 117.708 136.083C117.465 135.982 117.243 135.834 117.057 135.647C116.87 135.46 116.723 135.239 116.622 134.995C116.521 134.751 116.47 134.489 116.47 134.225V90.9001C116.468 90.5476 116.561 90.201 116.738 89.8962C116.914 89.5908 117.168 89.3372 117.473 89.161C117.778 88.9848 118.125 88.8921 118.478 88.8923H188.408C188.94 88.8923 189.451 89.1039 189.827 89.4804C190.204 89.8569 190.415 90.3676 190.415 90.9001Z" fill="#4C4C78"/>
<path d="M153.443 87.8849C153.962 87.8849 154.383 87.4638 154.383 86.9444C154.383 86.425 153.962 86.0039 153.443 86.0039C152.923 86.0039 152.502 86.425 152.502 86.9444C152.502 87.4638 152.923 87.8849 153.443 87.8849Z" fill="white"/>
<path d="M153.443 145.645C154.724 145.645 155.763 144.605 155.763 143.323C155.763 142.041 154.724 141.002 153.443 141.002C152.161 141.002 151.122 142.041 151.122 143.323C151.122 144.605 152.161 145.645 153.443 145.645Z" fill="white"/>
<path d="M190.415 90.9001H116.477C116.477 90.3676 116.689 89.8569 117.065 89.4804C117.442 89.1039 117.952 88.8923 118.485 88.8923H188.408C188.94 88.8923 189.451 89.1039 189.827 89.4804C190.204 89.8569 190.415 90.3676 190.415 90.9001Z" fill="#C8CAD7"/>
<path d="M118.477 90.3999C118.755 90.3999 118.981 90.1743 118.981 89.8962C118.981 89.618 118.755 89.3925 118.477 89.3925C118.199 89.3925 117.974 89.618 117.974 89.8962C117.974 90.1743 118.199 90.3999 118.477 90.3999Z" fill="#EDEDF4"/>
<path d="M119.985 90.3999C120.263 90.3999 120.489 90.1743 120.489 89.8962C120.489 89.618 120.263 89.3925 119.985 89.3925C119.707 89.3925 119.481 89.618 119.481 89.8962C119.481 90.1743 119.707 90.3999 119.985 90.3999Z" fill="#EDEDF4"/>
<path d="M121.492 90.3999C121.77 90.3999 121.996 90.1743 121.996 89.8962C121.996 89.618 121.77 89.3925 121.492 89.3925C121.214 89.3925 120.989 89.618 120.989 89.8962C120.989 90.1743 121.214 90.3999 121.492 90.3999Z" fill="#EDEDF4"/>
<defs>
<linearGradient id="paint0_linear" x1="105.351" y1="200.16" x2="106.168" y2="200.16" gradientUnits="userSpaceOnUse">
<stop stop-color="#808080" stop-opacity="0.25"/>
<stop offset="0.54" stop-color="#808080" stop-opacity="0.12"/>
<stop offset="1" stop-color="#808080" stop-opacity="0.1"/>
</linearGradient>
</defs>
</svg>
