<svg width="10" height="9" viewBox="0 0 10 9" fill="none" xmlns="http://www.w3.org/2000/svg">
<path fill-rule="evenodd" clip-rule="evenodd" d="M2.32289 3.76051C2.32289 3.76051 1.57155 4.15873 1.14154 4.28058C1.01889 4.31489 0.962687 4.3197 0.924292 4.29758C0.876952 4.27011 0.862364 4.24546 0.828612 4.14342C0.680132 3.68999 0.776859 3.20304 1.10325 2.76583C1.18922 2.65037 1.29291 2.53958 1.40969 2.4364L1.37209 2.35039C1.22064 2.00743 1.14997 1.60797 1.19035 1.30132C1.22064 1.06527 1.27718 0.903878 1.3943 0.728359C1.48315 0.59319 1.76384 0.300659 1.87894 0.221978C1.94355 0.177594 2.07885 0.189699 2.15154 0.246188C2.29491 0.359165 2.5453 0.756604 2.5453 0.871598C2.5453 0.964401 2.52107 1.00475 2.35145 1.18229C2.18587 1.35579 2.14952 1.44052 2.1677 1.61402C2.17375 1.67051 2.2 1.76533 2.22625 1.82787L2.26367 1.91888C2.38809 1.8703 2.5149 1.83097 2.64153 1.80254C2.77812 1.77152 3.06964 1.751 3.19986 1.76323C3.51539 1.79152 3.77892 1.88423 4.00184 2.04485C4.0993 2.11501 4.12615 2.17988 4.08864 2.25527C4.06912 2.2943 3.91871 2.43249 3.91871 2.43249C3.84198 2.50413 3.76564 2.57649 3.68923 2.64892C3.40451 2.91882 3.11875 3.18971 2.80753 3.42763L2.54502 3.61929L2.32289 3.76051Z" fill="#FC9804"/>
<path fill-rule="evenodd" clip-rule="evenodd" d="M4.50129 2.91647C4.46806 2.88808 4.42385 2.85521 4.31146 2.92986C4.2549 2.96744 4.10084 3.10068 3.90503 3.27003C3.64646 3.49365 3.31509 3.78023 3.03931 3.99262C2.55467 4.36585 1.45416 4.72899 1.45416 4.72899C1.45416 4.72899 1.16984 4.77918 1.1465 4.81938C1.12962 4.84857 1.12201 4.87707 1.12392 4.90581L1.10059 4.91056C1.10059 4.91056 1.21165 5.10625 1.34694 5.31405C1.90427 6.15533 2.84122 7.02082 3.89126 7.66035C4.73532 8.17278 5.82776 8.54803 7.06761 8.75179C8.18429 8.93538 9.305 8.93942 9.65232 8.7639C9.93098 8.62268 9.92896 8.23936 9.6503 7.98919C9.48068 7.83587 9.32317 7.74508 8.73152 7.45053C8.10351 7.13985 7.78043 6.96029 7.45532 6.74442C7.003 6.43979 6.66981 6.16743 6.30028 5.79824C5.73286 5.23133 5.38352 4.69267 4.78581 3.47211C4.71271 3.32211 4.64494 3.18563 4.59405 3.08533C4.57278 2.98875 4.55937 2.96208 4.51737 2.92986C4.51443 2.92762 4.51148 2.92518 4.50847 2.92262C4.50553 2.9178 4.50371 2.91529 4.5031 2.91529C4.5027 2.91529 4.50209 2.9157 4.50129 2.91647Z" fill="#FC9804"/>
</svg>
