<svg width="476" height="376" viewBox="0 0 476 376" fill="none" xmlns="http://www.w3.org/2000/svg">
<path d="M1.04834 1.30591H374.048V374.306H1.04834V1.30591Z" stroke="white" stroke-width="2"/>
<g clip-path="url(#clip0)">
<path d="M271.446 213.841C287.238 213.841 300.039 201.012 300.039 185.186C300.039 169.359 287.238 156.53 271.446 156.53C255.655 156.53 242.854 169.359 242.854 185.186C242.854 201.012 255.655 213.841 271.446 213.841Z" fill="#FF6584"/>
<path d="M324.048 59.3062H43.0483V68.2657H324.048V59.3062Z" fill="#F2F2F2"/>
<path d="M50.5676 65.9726C51.8454 65.9726 52.8813 64.9345 52.8813 63.6539C52.8813 62.3732 51.8454 61.3351 50.5676 61.3351C49.2898 61.3351 48.2539 62.3732 48.2539 63.6539C48.2539 64.9345 49.2898 65.9726 50.5676 65.9726Z" fill="#FC9804"/>
<path d="M58.0871 65.9726C59.3649 65.9726 60.4008 64.9345 60.4008 63.6539C60.4008 62.3732 59.3649 61.3351 58.0871 61.3351C56.8093 61.3351 55.7734 62.3732 55.7734 63.6539C55.7734 64.9345 56.8093 65.9726 58.0871 65.9726Z" fill="#FC9804"/>
<path d="M65.6066 65.9726C66.8845 65.9726 67.9203 64.9345 67.9203 63.6539C67.9203 62.3732 66.8845 61.3351 65.6066 61.3351C64.3288 61.3351 63.293 62.3732 63.293 63.6539C63.293 64.9345 64.3288 65.9726 65.6066 65.9726Z" fill="#FC9804"/>
<path d="M43.2472 230.696L43.0483 230.867V291.306H324.048V185.143L320.7 185.397L43.2472 230.696Z" fill="#F2F2F2"/>
<path d="M141.797 148.926H63.3276V152.097H141.797V148.926Z" fill="#3F3D56"/>
<path d="M141.797 155.902H63.3276V159.073H141.797V155.902Z" fill="#3F3D56"/>
<path d="M89.906 162.878H63.3276V166.049H89.906V162.878Z" fill="#3F3D56"/>
<path d="M174.597 288.383C176.302 288.383 177.684 286.998 177.684 285.289C177.684 283.581 176.302 282.196 174.597 282.196C172.892 282.196 171.51 283.581 171.51 285.289C171.51 286.998 172.892 288.383 174.597 288.383Z" fill="white"/>
<path d="M183.548 288.692C185.253 288.692 186.635 287.307 186.635 285.598C186.635 283.89 185.253 282.505 183.548 282.505C181.843 282.505 180.461 283.89 180.461 285.598C180.461 287.307 181.843 288.692 183.548 288.692Z" fill="#F2F2F2"/>
<path d="M192.5 289.001C194.205 289.001 195.586 287.616 195.586 285.908C195.586 284.199 194.205 282.814 192.5 282.814C190.795 282.814 189.413 284.199 189.413 285.908C189.413 287.616 190.795 289.001 192.5 289.001Z" fill="white"/>
<path d="M183.577 288.073C184.941 288.073 186.046 286.965 186.046 285.598C186.046 284.232 184.941 283.124 183.577 283.124C182.213 283.124 181.107 284.232 181.107 285.598C181.107 286.965 182.213 288.073 183.577 288.073Z" fill="#3F3D56"/>
<path d="M271.78 215.279C271.78 235.469 249.733 228.074 222.537 228.074C195.341 228.074 173.294 235.469 173.294 215.279C173.294 195.089 195.341 154.96 222.537 154.96C249.733 154.96 271.78 195.089 271.78 215.279Z" fill="#FC9804"/>
<path d="M320.887 232.209C315.183 231.241 309.698 230.409 304.431 229.714L306.513 225.669C305.811 225.424 302.727 227.741 302.727 227.741L305.459 215.997C301.928 216.424 300.133 228.415 300.133 228.415L296.188 224.361L298.097 228.919C284.242 227.24 270.303 226.361 256.347 226.286L258.129 222.823C257.427 222.579 254.342 224.895 254.342 224.895L257.075 213.151C253.544 213.578 251.748 225.57 251.748 225.57L247.803 221.515L249.826 226.343C245.247 226.435 241.067 226.631 237.277 226.891L237.906 225.669C237.461 225.514 236.057 226.389 235.09 227.05C234.811 227.072 234.539 227.094 234.265 227.117L236.852 215.997C233.971 216.345 232.246 224.388 231.708 227.34C231.329 227.376 230.953 227.412 230.584 227.448L227.608 224.389C230.101 220.512 233.751 217.452 233.751 217.452C229.075 218.846 226.622 221.182 225.34 223.359C225.226 212.229 227.072 201.165 230.795 190.678C230.795 190.678 221.13 211.758 222.363 225.907L222.495 228.155C209.311 226.826 197.719 226.307 187.74 226.286L189.522 222.823C188.82 222.579 185.735 224.895 185.735 224.895L188.467 213.151C184.936 213.578 183.141 225.57 183.141 225.57L179.196 221.515L181.219 226.343C173.196 226.476 165.185 227.021 157.218 227.977C159.021 222.582 165.144 217.452 165.144 217.452C160.468 218.846 158.015 221.182 156.733 223.359C156.618 212.229 158.465 201.165 162.188 190.678C162.188 190.678 152.522 211.758 153.756 225.907L153.903 228.42C145.709 229.595 141.589 230.819 141.589 230.819L252.28 232.209C250.349 231.882 248.445 231.57 246.566 231.276L320.887 232.209ZM227.598 224.404L228.945 227.618C227.86 227.734 226.817 227.854 225.825 227.977C226.268 226.718 226.863 225.518 227.598 224.404V224.404Z" fill="#3F3D56"/>
<path d="M287.451 229.254C287.391 229.156 285.981 226.797 285.493 221.898C285.044 217.404 285.333 209.828 289.253 199.26C296.68 179.239 287.541 163.086 287.448 162.925L287.899 162.663C287.923 162.704 290.281 166.822 291.674 173.38C293.514 182.075 292.844 191.115 289.742 199.442C282.327 219.428 287.839 228.889 287.896 228.982L287.451 229.254Z" fill="#3F3D56"/>
<path d="M284.547 161.749C286.417 161.749 287.934 160.23 287.934 158.355C287.934 156.48 286.417 154.96 284.547 154.96C282.676 154.96 281.16 156.48 281.16 158.355C281.16 160.23 282.676 161.749 284.547 161.749Z" fill="#FC9804"/>
<path d="M295.229 174.283C297.1 174.283 298.616 172.763 298.616 170.888C298.616 169.014 297.1 167.494 295.229 167.494C293.358 167.494 291.842 169.014 291.842 170.888C291.842 172.763 293.358 174.283 295.229 174.283Z" fill="#3F3D56"/>
<path d="M287.934 182.639C289.805 182.639 291.321 181.119 291.321 179.244C291.321 177.37 289.805 175.85 287.934 175.85C286.063 175.85 284.547 177.37 284.547 179.244C284.547 181.119 286.063 182.639 287.934 182.639Z" fill="#FC9804"/>
<path d="M296.792 189.689C298.663 189.689 300.179 188.169 300.179 186.295C300.179 184.42 298.663 182.9 296.792 182.9C294.922 182.9 293.405 184.42 293.405 186.295C293.405 188.169 294.922 189.689 296.792 189.689Z" fill="#FC9804"/>
<path d="M285.328 200.656C287.199 200.656 288.716 199.136 288.716 197.262C288.716 195.387 287.199 193.867 285.328 193.867C283.458 193.867 281.941 195.387 281.941 197.262C281.941 199.136 283.458 200.656 285.328 200.656Z" fill="#3F3D56"/>
<path d="M289.497 229.379C289.497 229.379 286.11 221.023 296.271 214.757L289.497 229.379Z" fill="#3F3D56"/>
<path d="M285.332 229.228C285.332 229.228 283.79 220.342 271.859 220.418L285.332 229.228Z" fill="#3F3D56"/>
<path d="M230.557 84.3363C226.842 78.0447 219.491 77.7515 219.491 77.7515C219.491 77.7515 212.329 76.8335 207.734 86.4157C203.451 95.3471 197.541 103.971 206.782 106.061L208.452 100.854L209.486 106.449C210.801 106.544 212.122 106.566 213.44 106.517C223.337 106.196 232.763 106.61 232.459 103.051C232.056 98.3193 234.132 90.3901 230.557 84.3363Z" fill="#2F2E41"/>
<path d="M203.778 135.115L202.996 149.216L225.924 151.566L226.706 136.943L218.889 131.982L203.778 135.115Z" fill="#A0616A"/>
<path d="M265.397 166.058C264.709 159.397 237.412 156.373 230.852 155.742L228.399 154.308L227.618 145.952C227.618 145.952 203.387 143.863 201.563 143.602C199.739 143.341 198.176 146.735 198.176 147.518C198.176 148.085 197.835 152.128 196.466 154.524C193.51 156.904 184.498 164.395 184.498 167.233C184.498 170.628 191.663 213.321 191.663 213.321L192.444 222.199L199.739 223.504L199.218 195.826C199.218 195.826 201.824 179.897 198.176 175.458V173.63C198.176 173.63 208.875 170.837 212.645 167.795C213.738 167.56 216.808 166.98 218.504 167.484C218.737 167.622 219.005 167.763 219.303 167.906C219.341 167.941 219.377 167.977 219.411 168.016C219.411 168.016 219.421 168 219.44 167.971C224.318 170.259 236.831 173.145 241.948 172.325C245.895 171.721 249.93 172.456 253.412 174.414C250.546 178.069 252.63 188.514 252.63 188.514L252.891 210.97L256.538 215.41H261.489V203.137C261.489 203.137 266.179 173.63 265.397 166.058Z" fill="#2F2E41"/>
<path d="M217.196 101.561C221.944 101.561 225.794 97.7035 225.794 92.9445C225.794 88.1855 221.944 84.3275 217.196 84.3275C212.447 84.3275 208.598 88.1855 208.598 92.9445C208.598 97.7035 212.447 101.561 217.196 101.561Z" fill="#A0616A"/>
<path d="M211.985 98.428C211.985 98.428 213.288 104.173 211.464 104.695C210.021 105.174 208.626 105.786 207.295 106.523L205.211 113.312V120.101L230.484 122.973L231.265 120.623V117.229L228.399 112.006L227.097 110.701C227.097 110.701 221.365 104.434 222.667 98.428H211.985Z" fill="#A0616A"/>
<path d="M234.522 119.187C234.522 119.187 235.304 128.326 234.522 132.504C233.74 136.682 234.001 142.949 234.001 142.949L228.269 141.904V127.804L229.572 120.231L234.522 119.187Z" fill="#A0616A"/>
<path d="M220.391 83.11C223.326 83.11 225.706 80.7252 225.706 77.7834C225.706 74.8417 223.326 72.4569 220.391 72.4569C217.456 72.4569 215.076 74.8417 215.076 77.7834C215.076 80.7252 217.456 83.11 220.391 83.11Z" fill="#2F2E41"/>
<path d="M214.517 76.3817C214.517 75.0662 215.003 73.7972 215.881 72.8193C216.759 71.8414 217.967 71.2236 219.272 71.0851C218.531 71.006 217.781 71.0841 217.072 71.3142C216.363 71.5443 215.71 71.9214 215.156 72.4209C214.601 72.9204 214.158 73.5312 213.855 74.2135C213.551 74.8959 213.395 75.6346 213.395 76.3817C213.395 77.1288 213.551 77.8675 213.855 78.5499C214.158 79.2322 214.601 79.843 215.156 80.3425C215.71 80.842 216.363 81.2191 217.072 81.4492C217.781 81.6793 218.531 81.7574 219.272 81.6783C217.967 81.5397 216.759 80.922 215.881 79.9441C215.003 78.9662 214.517 77.6972 214.517 76.3817V76.3817Z" fill="#2F2E41"/>
<path d="M228.914 83.73L221.653 79.9175L211.624 81.4772L209.549 90.6613L214.714 90.462L216.157 87.088V90.4064L218.54 90.3146L219.924 84.9427L220.788 90.6613L229.26 90.4879L228.914 83.73Z" fill="#2F2E41"/>
<path d="M234.262 151.566H202.475V183.422H234.262V151.566Z" fill="#F2F2F2"/>
<path d="M197.264 114.748L192.574 134.071C192.574 134.071 190.751 138.249 194.919 140.86C199.088 143.471 208.468 146.866 208.468 146.866C208.468 146.866 216.805 158.355 217.847 153.655C218.89 148.955 211.594 142.949 211.594 142.949L198.828 134.854L203.778 121.276L197.264 114.748Z" fill="#A0616A"/>
<path d="M231.135 139.032C231.135 139.032 235.043 138.51 234.783 142.949C234.522 147.388 229.311 147.91 229.311 147.91C229.311 147.91 226.966 157.833 223.579 156.005C220.192 154.177 225.403 144.254 225.403 144.254L229.832 140.86L231.135 139.032Z" fill="#A0616A"/>
<path d="M205.992 113.051L210.161 104.434L201.824 107.306C201.824 107.306 197.134 109.656 196.873 115.14C196.613 120.623 202.866 123.495 202.866 123.495C202.866 123.495 203.908 131.329 203.387 132.373C202.866 133.418 203.387 137.596 203.387 137.596C203.387 137.596 213.418 134.854 218.368 138.249C223.319 141.643 227.357 139.685 227.357 139.685C227.357 139.685 227.097 133.157 229.181 132.112C231.265 131.068 233.089 126.107 231.265 122.973C231.265 122.973 235.434 123.495 235.173 119.579C234.913 115.662 232.829 112.267 229.441 110.701C226.054 109.134 225.68 108.884 225.68 108.884L230.484 117.751V120.101C230.484 120.101 221.98 114.661 213.566 114.208C210.821 114.082 208.126 114.971 205.992 116.706L205.992 116.706V113.051Z" fill="#2F2E41"/>
<path d="M199.334 213.43C199.334 213.43 203.031 215.173 204.118 215.827C205.206 216.481 209.555 215.173 208.685 219.097C207.815 223.02 204.118 226.725 204.118 226.725C204.118 226.725 202.378 228.687 202.378 229.995C202.378 231.302 198.029 241.329 192.809 240.893C187.59 240.457 188.46 235.226 188.46 235.226L189.547 229.559C189.547 229.559 191.722 219.969 192.157 220.187C192.592 220.405 193.679 221.93 193.679 221.93C193.679 221.93 199.116 219.751 199.334 213.43Z" fill="#D0CDE1"/>
<path d="M253.556 206.902C253.556 206.902 249.859 208.645 248.772 209.299C247.684 209.953 243.335 208.645 244.205 212.569C245.074 216.492 248.772 220.197 248.772 220.197C248.772 220.197 250.511 222.159 250.511 223.467C250.511 224.774 254.861 234.8 260.081 234.365C265.3 233.929 264.43 228.698 264.43 228.698L263.343 223.031C263.343 223.031 261.168 213.44 260.733 213.658C260.298 213.876 259.211 215.402 259.211 215.402C259.211 215.402 253.774 213.223 253.556 206.902Z" fill="#D0CDE1"/>
</g>
<defs>
<clipPath id="clip0">
<rect width="281" height="232" fill="white" transform="translate(43.0483 59.3062)"/>
</clipPath>
</defs>
</svg>
