<svg width="282" height="233" viewBox="0 0 282 233" fill="none" xmlns="http://www.w3.org/2000/svg">
<g clip-path="url(#clip0)">
<path d="M228.446 154.841C244.238 154.841 257.039 142.012 257.039 126.186C257.039 110.359 244.238 97.5298 228.446 97.5298C212.655 97.5298 199.854 110.359 199.854 126.186C199.854 142.012 212.655 154.841 228.446 154.841Z" fill="#FF6584"/>
<path d="M281.048 0.306152H0.0483398V9.26568H281.048V0.306152Z" fill="#F2F2F2"/>
<path d="M7.56759 6.97264C8.8454 6.97264 9.88127 5.93449 9.88127 4.65386C9.88127 3.37324 8.8454 2.33508 7.56759 2.33508C6.28978 2.33508 5.25391 3.37324 5.25391 4.65386C5.25391 5.93449 6.28978 6.97264 7.56759 6.97264Z" fill="#FC9804"/>
<path d="M15.0871 6.97264C16.3649 6.97264 17.4008 5.93449 17.4008 4.65386C17.4008 3.37324 16.3649 2.33508 15.0871 2.33508C13.8093 2.33508 12.7734 3.37324 12.7734 4.65386C12.7734 5.93449 13.8093 6.97264 15.0871 6.97264Z" fill="#FC9804"/>
<path d="M22.6066 6.97264C23.8845 6.97264 24.9203 5.93449 24.9203 4.65386C24.9203 3.37324 23.8845 2.33508 22.6066 2.33508C21.3288 2.33508 20.293 3.37324 20.293 4.65386C20.293 5.93449 21.3288 6.97264 22.6066 6.97264Z" fill="#FC9804"/>
<path d="M0.247177 171.696L0.0483398 171.867V232.306H281.048V126.143L277.7 126.397L0.247177 171.696Z" fill="#F2F2F2"/>
<path d="M98.797 89.9258H20.3276V93.0968H98.797V89.9258Z" fill="#3F3D56"/>
<path d="M98.797 96.902H20.3276V100.073H98.797V96.902Z" fill="#3F3D56"/>
<path d="M46.906 103.878H20.3276V107.049H46.906V103.878Z" fill="#3F3D56"/>
<path d="M131.597 229.383C133.302 229.383 134.684 227.998 134.684 226.289C134.684 224.581 133.302 223.196 131.597 223.196C129.892 223.196 128.51 224.581 128.51 226.289C128.51 227.998 129.892 229.383 131.597 229.383Z" fill="white"/>
<path d="M140.548 229.692C142.253 229.692 143.635 228.307 143.635 226.598C143.635 224.89 142.253 223.505 140.548 223.505C138.843 223.505 137.461 224.89 137.461 226.598C137.461 228.307 138.843 229.692 140.548 229.692Z" fill="#F2F2F2"/>
<path d="M149.5 230.001C151.205 230.001 152.586 228.616 152.586 226.908C152.586 225.199 151.205 223.814 149.5 223.814C147.795 223.814 146.413 225.199 146.413 226.908C146.413 228.616 147.795 230.001 149.5 230.001Z" fill="white"/>
<path d="M140.577 229.073C141.941 229.073 143.046 227.965 143.046 226.598C143.046 225.232 141.941 224.124 140.577 224.124C139.213 224.124 138.107 225.232 138.107 226.598C138.107 227.965 139.213 229.073 140.577 229.073Z" fill="#3F3D56"/>
<path d="M228.78 156.279C228.78 176.469 206.733 169.074 179.537 169.074C152.341 169.074 130.294 176.469 130.294 156.279C130.294 136.089 152.341 95.9603 179.537 95.9603C206.733 95.9603 228.78 136.089 228.78 156.279Z" fill="#FC9804"/>
<path d="M277.887 173.209C272.183 172.241 266.698 171.409 261.431 170.714L263.513 166.669C262.811 166.424 259.727 168.741 259.727 168.741L262.459 156.997C258.928 157.424 257.133 169.415 257.133 169.415L253.188 165.361L255.097 169.919C241.242 168.24 227.303 167.361 213.347 167.286L215.129 163.823C214.427 163.579 211.342 165.895 211.342 165.895L214.075 154.151C210.544 154.578 208.748 166.57 208.748 166.57L204.803 162.515L206.826 167.343C202.247 167.435 198.067 167.631 194.277 167.891L194.906 166.669C194.461 166.514 193.057 167.389 192.09 168.05C191.811 168.072 191.539 168.094 191.265 168.117L193.852 156.997C190.971 157.345 189.246 165.388 188.708 168.34C188.329 168.376 187.953 168.412 187.584 168.448L184.608 165.389C187.101 161.512 190.751 158.452 190.751 158.452C186.075 159.846 183.622 162.182 182.34 164.359C182.226 153.229 184.072 142.165 187.795 131.678C187.795 131.678 178.13 152.758 179.363 166.907L179.495 169.155C166.311 167.826 154.719 167.307 144.74 167.286L146.522 163.823C145.82 163.579 142.735 165.895 142.735 165.895L145.467 154.151C141.936 154.578 140.141 166.57 140.141 166.57L136.196 162.515L138.219 167.343C130.196 167.476 122.185 168.021 114.218 168.977C116.021 163.582 122.144 158.452 122.144 158.452C117.468 159.846 115.015 162.182 113.733 164.359C113.618 153.229 115.465 142.165 119.188 131.678C119.188 131.678 109.522 152.758 110.756 166.907L110.903 169.42C102.709 170.596 98.5894 171.819 98.5894 171.819L209.28 173.209C207.349 172.882 205.445 172.57 203.566 172.276L277.887 173.209ZM184.598 165.404L185.945 168.618C184.86 168.734 183.817 168.854 182.825 168.977C183.268 167.718 183.863 166.518 184.598 165.404Z" fill="#3F3D56"/>
<path d="M244.451 170.254C244.391 170.156 242.981 167.797 242.493 162.898C242.044 158.404 242.333 150.828 246.253 140.26C253.68 120.239 244.541 104.086 244.448 103.925L244.899 103.663C244.923 103.704 247.281 107.822 248.674 114.38C250.514 123.075 249.844 132.115 246.742 140.442C239.327 160.428 244.839 169.889 244.896 169.982L244.451 170.254Z" fill="#3F3D56"/>
<path d="M241.547 102.749C243.417 102.749 244.934 101.23 244.934 99.3549C244.934 97.4801 243.417 95.9603 241.547 95.9603C239.676 95.9603 238.16 97.4801 238.16 99.3549C238.16 101.23 239.676 102.749 241.547 102.749Z" fill="#FC9804"/>
<path d="M252.229 115.283C254.1 115.283 255.616 113.763 255.616 111.888C255.616 110.014 254.1 108.494 252.229 108.494C250.358 108.494 248.842 110.014 248.842 111.888C248.842 113.763 250.358 115.283 252.229 115.283Z" fill="#3F3D56"/>
<path d="M244.934 123.639C246.805 123.639 248.321 122.119 248.321 120.244C248.321 118.37 246.805 116.85 244.934 116.85C243.063 116.85 241.547 118.37 241.547 120.244C241.547 122.119 243.063 123.639 244.934 123.639Z" fill="#FC9804"/>
<path d="M253.792 130.689C255.663 130.689 257.179 129.169 257.179 127.295C257.179 125.42 255.663 123.9 253.792 123.9C251.922 123.9 250.405 125.42 250.405 127.295C250.405 129.169 251.922 130.689 253.792 130.689Z" fill="#FC9804"/>
<path d="M242.328 141.656C244.199 141.656 245.716 140.136 245.716 138.262C245.716 136.387 244.199 134.867 242.328 134.867C240.458 134.867 238.941 136.387 238.941 138.262C238.941 140.136 240.458 141.656 242.328 141.656Z" fill="#3F3D56"/>
<path d="M246.497 170.379C246.497 170.379 243.11 162.023 253.271 155.757L246.497 170.379Z" fill="#3F3D56"/>
<path d="M242.332 170.228C242.332 170.228 240.79 161.342 228.859 161.418L242.332 170.228Z" fill="#3F3D56"/>
<path d="M187.557 25.3363C183.842 19.0447 176.491 18.7515 176.491 18.7515C176.491 18.7515 169.329 17.8335 164.734 27.4157C160.451 36.3471 154.541 44.9705 163.782 47.0613L165.452 41.8541L166.486 47.449C167.801 47.5438 169.122 47.5664 170.44 47.5167C180.337 47.1965 189.763 47.6104 189.459 44.051C189.056 39.3193 191.132 31.3901 187.557 25.3363Z" fill="#2F2E41"/>
<path d="M160.778 76.1151L159.996 90.2155L182.924 92.5659L183.706 77.943L175.889 72.9819L160.778 76.1151Z" fill="#A0616A"/>
<path d="M222.397 107.058C221.709 100.397 194.412 97.373 187.852 96.7416L185.399 95.3076L184.618 86.9518C184.618 86.9518 160.387 84.8628 158.563 84.6017C156.739 84.3406 155.176 87.7351 155.176 88.5185C155.176 89.0846 154.835 93.1276 153.466 95.5239C150.51 97.9045 141.498 105.395 141.498 108.233C141.498 111.628 148.663 154.321 148.663 154.321L149.444 163.199L156.739 164.504L156.218 136.826C156.218 136.826 158.824 120.897 155.176 116.458V114.63C155.176 114.63 165.875 111.837 169.645 108.795C170.738 108.56 173.808 107.98 175.504 108.484C175.737 108.622 176.005 108.763 176.303 108.906C176.341 108.941 176.377 108.977 176.411 109.016C176.411 109.016 176.421 109 176.44 108.971C181.318 111.259 193.831 114.145 198.948 113.325C202.895 112.721 206.93 113.456 210.412 115.414C207.546 119.069 209.63 129.514 209.63 129.514L209.891 151.97L213.538 156.41H218.489V144.137C218.489 144.137 223.179 114.63 222.397 107.058Z" fill="#2F2E41"/>
<path d="M174.196 42.5614C178.944 42.5614 182.794 38.7035 182.794 33.9445C182.794 29.1855 178.944 25.3275 174.196 25.3275C169.447 25.3275 165.598 29.1855 165.598 33.9445C165.598 38.7035 169.447 42.5614 174.196 42.5614Z" fill="#A0616A"/>
<path d="M168.985 39.428C168.985 39.428 170.288 45.1726 168.464 45.6948C167.021 46.174 165.626 46.7859 164.295 47.5227L162.211 54.3118V61.1009L187.484 63.9732L188.265 61.6231V58.2286L185.399 53.0062L184.097 51.7006C184.097 51.7006 178.365 45.4337 179.667 39.428H168.985Z" fill="#A0616A"/>
<path d="M191.522 60.1869C191.522 60.1869 192.304 69.3261 191.522 73.504C190.74 77.6819 191.001 83.9488 191.001 83.9488L185.269 82.9043V68.8038L186.572 61.2314L191.522 60.1869Z" fill="#A0616A"/>
<path d="M177.391 24.11C180.326 24.11 182.706 21.7252 182.706 18.7834C182.706 15.8417 180.326 13.4569 177.391 13.4569C174.456 13.4569 172.076 15.8417 172.076 18.7834C172.076 21.7252 174.456 24.11 177.391 24.11Z" fill="#2F2E41"/>
<path d="M171.517 17.3817C171.517 16.0662 172.003 14.7972 172.881 13.8193C173.759 12.8414 174.967 12.2236 176.272 12.0851C175.531 12.006 174.781 12.0841 174.072 12.3142C173.363 12.5443 172.71 12.9214 172.156 13.4209C171.601 13.9204 171.158 14.5312 170.855 15.2135C170.551 15.8959 170.395 16.6346 170.395 17.3817C170.395 18.1288 170.551 18.8675 170.855 19.5499C171.158 20.2322 171.601 20.843 172.156 21.3425C172.71 21.842 173.363 22.2191 174.072 22.4492C174.781 22.6793 175.531 22.7574 176.272 22.6783C174.967 22.5397 173.759 21.922 172.881 20.9441C172.003 19.9662 171.517 18.6972 171.517 17.3817Z" fill="#2F2E41"/>
<path d="M185.914 24.73L178.653 20.9175L168.624 22.4772L166.549 31.6613L171.714 31.462L173.157 28.088V31.4064L175.54 31.3146L176.924 25.9427L177.788 31.6613L186.26 31.4879L185.914 24.73Z" fill="#2F2E41"/>
<path d="M191.262 92.5658H159.475V124.422H191.262V92.5658Z" fill="#F2F2F2"/>
<path d="M154.264 55.7479L149.574 75.0708C149.574 75.0708 147.751 79.2487 151.919 81.8599C156.088 84.471 165.468 87.8656 165.468 87.8656C165.468 87.8656 173.805 99.3548 174.847 94.6547C175.889 89.9545 168.594 83.9488 168.594 83.9488L155.828 75.8541L160.778 62.2759L154.264 55.7479Z" fill="#A0616A"/>
<path d="M188.135 80.032C188.135 80.032 192.043 79.5098 191.783 83.9488C191.522 88.3878 186.311 88.9101 186.311 88.9101C186.311 88.9101 183.966 98.8326 180.579 97.0047C177.192 95.1769 182.403 85.2544 182.403 85.2544L186.832 81.8598L188.135 80.032Z" fill="#A0616A"/>
<path d="M162.992 54.0507L167.161 45.4337L158.824 48.306C158.824 48.306 154.134 50.6561 153.873 56.1396C153.613 61.6231 159.866 64.4954 159.866 64.4954C159.866 64.4954 160.908 72.329 160.387 73.3735C159.866 74.418 160.387 78.5959 160.387 78.5959C160.387 78.5959 170.418 75.8541 175.368 79.2487C180.319 82.6432 184.357 80.6848 184.357 80.6848C184.357 80.6848 184.097 74.1569 186.181 73.1124C188.265 72.0679 190.089 67.1066 188.265 63.9732C188.265 63.9732 192.434 64.4954 192.173 60.5786C191.913 56.6619 189.829 53.2673 186.441 51.7006C183.054 50.1339 182.68 49.8836 182.68 49.8836L187.484 58.7508V61.1009C187.484 61.1009 178.98 55.6609 170.566 55.2076C167.821 55.0817 165.126 55.9709 162.992 57.7062L162.992 57.7063V54.0507Z" fill="#2F2E41"/>
<path d="M156.334 154.43C156.334 154.43 160.031 156.173 161.118 156.827C162.206 157.481 166.555 156.173 165.685 160.097C164.815 164.02 161.118 167.725 161.118 167.725C161.118 167.725 159.378 169.687 159.378 170.995C159.378 172.302 155.029 182.329 149.809 181.893C144.59 181.457 145.46 176.226 145.46 176.226L146.547 170.559C146.547 170.559 148.722 160.969 149.157 161.187C149.592 161.405 150.679 162.93 150.679 162.93C150.679 162.93 156.116 160.751 156.334 154.43Z" fill="#D0CDE1"/>
<path d="M210.556 147.902C210.556 147.902 206.859 149.645 205.772 150.299C204.684 150.953 200.335 149.645 201.205 153.569C202.074 157.492 205.772 161.197 205.772 161.197C205.772 161.197 207.511 163.159 207.511 164.467C207.511 165.774 211.861 175.8 217.081 175.365C222.3 174.929 221.43 169.698 221.43 169.698L220.343 164.031C220.343 164.031 218.168 154.44 217.733 154.658C217.298 154.876 216.211 156.402 216.211 156.402C216.211 156.402 210.774 154.223 210.556 147.902Z" fill="#D0CDE1"/>
</g>
<defs>
<clipPath id="clip0">
<rect width="281" height="232" fill="white" transform="translate(0.0483398 0.306152)"/>
</clipPath>
</defs>
</svg>
